<?xml version="1.0" encoding="UTF-8"?>
<!DOCTYPE svg PUBLIC "-//W3C//DTD SVG 1.1//EN" "http://www.w3.org/Graphics/SVG/1.1/DTD/svg11.dtd">
<svg xmlns="http://www.w3.org/2000/svg" version="1.1" width="1280px" height="540px" style="shape-rendering:geometricPrecision; text-rendering:geometricPrecision; image-rendering:optimizeQuality; fill-rule:evenodd; clip-rule:evenodd" xmlns:xlink="http://www.w3.org/1999/xlink">
<g><path style="opacity:0.356" fill="#4d5d65" d="M 1054.5,164.5 C 1055.83,164.833 1057.17,165.167 1058.5,165.5C 1065.63,160.517 1070.79,153.851 1074,145.5C 1074.49,143.866 1074.66,142.199 1074.5,140.5C 1075.86,137.041 1075.53,133.708 1073.5,130.5C 1071.77,126.357 1069.11,123.024 1065.5,120.5C 1065.42,119.25 1064.76,118.417 1063.5,118C 1061.87,117.506 1060.2,117.34 1058.5,117.5C 1052.33,115.889 1046.33,116.722 1040.5,120C 1037.02,123.649 1033.35,127.149 1029.5,130.5C 1026.21,133.4 1024.21,137.067 1023.5,141.5C 1022.83,144.5 1022.17,147.5 1021.5,150.5C 1020.59,152.019 1019.76,153.685 1019,155.5C 1016.82,168.737 1015.99,182.071 1016.5,195.5C 1013.07,196.767 1010.07,198.767 1007.5,201.5C 1003.45,206.87 1002.45,212.87 1004.5,219.5C 1003.78,219.082 1003.28,218.416 1003,217.5C 1001.26,208.163 1004.09,200.663 1011.5,195C 1012.45,194.517 1013.45,194.351 1014.5,194.5C 1014.56,179.017 1016.06,163.684 1019,148.5C 1021.94,133.233 1030.44,122.4 1044.5,116C 1063.75,111.284 1075.08,118.617 1078.5,138C 1076.75,150.168 1071.08,160.168 1061.5,168C 1058.39,168.443 1056.05,167.276 1054.5,164.5 Z"/></g>
<g><path style="opacity:0.999" fill="#bf57fb" d="M 1058.5,117.5 C 1060.65,118.736 1062.98,119.736 1065.5,120.5C 1069.11,123.024 1071.77,126.357 1073.5,130.5C 1074.05,133.807 1074.38,137.14 1074.5,140.5C 1074.66,142.199 1074.49,143.866 1074,145.5C 1070.79,153.851 1065.63,160.517 1058.5,165.5C 1057.31,164.143 1056.31,162.643 1055.5,161C 1058.78,156.941 1061.95,152.774 1065,148.5C 1070.81,129.639 1063.98,122.139 1044.5,126C 1034.4,133.702 1028.56,143.868 1027,156.5C 1024.77,169.414 1023.77,182.414 1024,195.5C 1024.38,196.056 1024.88,196.389 1025.5,196.5C 1029.34,197.992 1032.67,200.325 1035.5,203.5C 1039.92,217.342 1035.08,225.676 1021,228.5C 1018,228.519 1015.17,227.852 1012.5,226.5C 1011.15,224.479 1009.48,222.812 1007.5,221.5C 1004.89,214.847 1004.89,208.181 1007.5,201.5C 1010.07,198.767 1013.07,196.767 1016.5,195.5C 1016.66,180.437 1018.33,165.437 1021.5,150.5C 1022.17,147.5 1022.83,144.5 1023.5,141.5C 1025.77,137.958 1027.77,134.292 1029.5,130.5C 1033.35,127.149 1037.02,123.649 1040.5,120C 1046.33,116.722 1052.33,115.889 1058.5,117.5 Z"/></g>
<g><path style="opacity:0.839" fill="#8e78ab" d="M 1058.5,117.5 C 1060.2,117.34 1061.87,117.506 1063.5,118C 1064.76,118.417 1065.42,119.25 1065.5,120.5C 1062.98,119.736 1060.65,118.736 1058.5,117.5 Z"/></g>
<g><path style="opacity:0.918" fill="#9f8fb7" d="M 1029.5,130.5 C 1027.77,134.292 1025.77,137.958 1023.5,141.5C 1024.21,137.067 1026.21,133.4 1029.5,130.5 Z"/></g>
<g><path style="opacity:0.986" fill="#b880df" d="M 1073.5,130.5 C 1075.53,133.708 1075.86,137.041 1074.5,140.5C 1074.38,137.14 1074.05,133.807 1073.5,130.5 Z"/></g>
<g><path style="opacity:0.424" fill="#5d6873" d="M 1058.5,165.5 C 1057.17,165.167 1055.83,164.833 1054.5,164.5C 1051.76,163.928 1050.92,162.262 1052,159.5C 1058.85,153.658 1063.68,146.492 1066.5,138C 1062.91,127.867 1056.24,124.867 1046.5,129C 1035.82,137.503 1030.15,148.67 1029.5,162.5C 1027.84,170.936 1026.84,179.603 1026.5,188.5C 1026.83,190.167 1027.17,191.833 1027.5,193.5C 1040.67,200.2 1043.84,210.2 1037,223.5C 1029.29,230.927 1020.46,232.427 1010.5,228C 1007.47,225.817 1005.47,222.984 1004.5,219.5C 1005.22,220.551 1006.22,221.218 1007.5,221.5C 1009.48,222.812 1011.15,224.479 1012.5,226.5C 1015.17,227.852 1018,228.519 1021,228.5C 1035.08,225.676 1039.92,217.342 1035.5,203.5C 1033.84,198.845 1030.5,196.512 1025.5,196.5C 1024.88,196.389 1024.38,196.056 1024,195.5C 1023.77,182.414 1024.77,169.414 1027,156.5C 1028.56,143.868 1034.4,133.702 1044.5,126C 1063.98,122.139 1070.81,129.639 1065,148.5C 1061.95,152.774 1058.78,156.941 1055.5,161C 1056.31,162.643 1057.31,164.143 1058.5,165.5 Z"/></g>
<g><path style="opacity:1" fill="#fdfcfc" d="M 107.5,157.5 C 114.841,157.334 122.174,157.5 129.5,158C 130.056,158.383 130.389,158.883 130.5,159.5C 130.333,176.17 130.5,192.837 131,209.5C 132.808,211.396 134.975,211.896 137.5,211C 139.614,208.72 141.947,206.887 144.5,205.5C 144.5,204.833 144.833,204.5 145.5,204.5C 160.244,201.69 174.91,202.19 189.5,206C 193.546,207.872 197.546,210.039 201.5,212.5C 205.067,215.371 208.4,218.371 211.5,221.5C 213.826,224.135 216.159,226.802 218.5,229.5C 219.429,230.689 219.762,232.022 219.5,233.5C 219.685,235.196 220.519,236.529 222,237.5C 222.671,252.846 222.504,268.179 221.5,283.5C 220.417,283.539 219.417,283.873 218.5,284.5C 216.716,290.068 214.383,295.402 211.5,300.5C 209.567,302.596 207.233,304.096 204.5,305C 203.105,307.698 201.438,310.198 199.5,312.5C 199.167,312.5 198.833,312.5 198.5,312.5C 194.973,312.953 191.973,314.453 189.5,317C 187.527,317.495 185.527,317.662 183.5,317.5C 178.065,318.62 172.565,319.286 167,319.5C 161.189,318.679 155.355,318.013 149.5,317.5C 148.737,316.732 147.737,316.232 146.5,316C 145.941,315.275 145.608,314.442 145.5,313.5C 148.306,307.354 150.639,301.02 152.5,294.5C 160.813,293.668 169.147,293.168 177.5,293C 180.287,292.712 181.953,291.212 182.5,288.5C 184.812,286.364 187.312,284.364 190,282.5C 191.29,280.208 192.957,278.208 195,276.5C 195.24,274.148 196.073,272.148 197.5,270.5C 198.268,269.737 198.768,268.737 199,267.5C 201.999,256.13 199.166,246.797 190.5,239.5C 188.21,233.877 184.21,229.877 178.5,227.5C 168.05,225.945 157.716,226.445 147.5,229C 143.282,233.712 139.282,238.546 135.5,243.5C 131.988,251.95 129.988,260.616 129.5,269.5C 121.722,270.111 114.222,269.444 107,267.5C 106.5,231.168 106.333,194.835 106.5,158.5C 106.5,157.833 106.833,157.5 107.5,157.5 Z"/></g>
<g><path style="opacity:0.224" fill="#452838" d="M 171.5,196.5 C 166.684,197.326 161.684,197.826 156.5,198C 154.277,198.566 152.277,199.4 150.5,200.5C 148.102,200.259 146.102,200.926 144.5,202.5C 141.161,204.614 137.495,205.947 133.5,206.5C 133.667,190.163 133.5,173.83 133,157.5C 132.411,155.137 130.911,154.137 128.5,154.5C 120.684,153.508 112.684,153.174 104.5,153.5C 113.463,151.803 122.463,151.636 131.5,153C 132.667,154.167 133.833,155.333 135,156.5C 135.333,172.5 135.667,188.5 136,204.5C 144.618,199.425 154.285,196.425 165,195.5C 167.041,196.423 169.208,196.756 171.5,196.5 Z"/></g>
<g><path style="opacity:0.678" fill="#54606c" d="M 1044.5,168.5 C 1043.17,168.5 1041.83,168.5 1040.5,168.5C 1038.15,167.66 1036.15,166.326 1034.5,164.5C 1033.79,163.596 1032.79,163.263 1031.5,163.5C 1031.5,166.167 1031.5,168.833 1031.5,171.5C 1030.84,173.641 1030.5,175.975 1030.5,178.5C 1030.53,181.269 1031.2,183.603 1032.5,185.5C 1042.76,192.583 1052.93,199.916 1063,207.5C 1063.5,215.827 1063.67,224.16 1063.5,232.5C 1069.5,232.5 1075.5,232.5 1081.5,232.5C 1082.49,223.348 1082.83,214.015 1082.5,204.5C 1083.27,205.263 1083.77,206.263 1084,207.5C 1084.67,216.5 1084.67,225.5 1084,234.5C 1076.58,235.647 1069.08,235.813 1061.5,235C 1060.96,225.478 1060.13,215.978 1059,206.5C 1048.72,199.889 1038.72,192.889 1029,185.5C 1028.52,177.822 1028.69,170.155 1029.5,162.5C 1030.84,160.887 1032.5,160.387 1034.5,161C 1038.3,162.979 1041.63,165.479 1044.5,168.5 Z"/></g>
<g><path style="opacity:0.98" fill="#a78fc1" d="M 1021.5,150.5 C 1018.33,165.437 1016.66,180.437 1016.5,195.5C 1015.99,182.071 1016.82,168.737 1019,155.5C 1019.76,153.685 1020.59,152.019 1021.5,150.5 Z"/></g>
<g><path style="opacity:1" fill="#bf55fd" d="M 1011.5,164.5 C 1010.82,171.476 1010.32,178.476 1010,185.5C 999.484,191.663 989.651,198.663 980.5,206.5C 979.833,220.663 979.5,234.996 979.5,249.5C 979.348,264.59 979.848,279.59 981,294.5C 981.5,295 982,295.5 982.5,296C 1008.5,296.667 1034.5,296.667 1060.5,296C 1061.25,295.329 1061.59,294.496 1061.5,293.5C 1062.34,293.158 1062.67,292.492 1062.5,291.5C 1063.49,284.687 1063.82,277.687 1063.5,270.5C 1047.83,270.5 1032.17,270.5 1016.5,270.5C 1016.5,269.167 1016.5,267.833 1016.5,266.5C 1018.58,258.126 1023.91,253.46 1032.5,252.5C 1048.83,252.5 1065.17,252.5 1081.5,252.5C 1081.5,265.833 1081.5,279.167 1081.5,292.5C 1079.99,295.678 1078.66,299.011 1077.5,302.5C 1075.53,304.808 1073.53,307.142 1071.5,309.5C 1068.55,310.973 1065.55,312.473 1062.5,314C 1035.17,314.667 1007.83,314.667 980.5,314C 978.846,313.392 977.179,312.892 975.5,312.5C 967.879,307.932 963.212,301.265 961.5,292.5C 961.191,263.135 961.524,233.802 962.5,204.5C 962.833,203.167 963.167,201.833 963.5,200.5C 965.346,198.97 966.346,196.97 966.5,194.5C 968.5,193.167 970.167,191.5 971.5,189.5C 974.803,188.849 977.47,187.182 979.5,184.5C 987.603,179.936 995.269,174.602 1002.5,168.5C 1004.03,168.573 1005.03,167.906 1005.5,166.5C 1007.58,166.029 1009.58,165.363 1011.5,164.5 Z"/></g>
<g><path style="opacity:1" fill="#bf55fd" d="M 1034.5,164.5 C 1036.15,166.326 1038.15,167.66 1040.5,168.5C 1052.13,177.272 1063.96,185.938 1076,194.5C 1078.22,198.271 1079.89,202.271 1081,206.5C 1081.5,215.16 1081.67,223.827 1081.5,232.5C 1075.5,232.5 1069.5,232.5 1063.5,232.5C 1063.67,224.16 1063.5,215.827 1063,207.5C 1052.93,199.916 1042.76,192.583 1032.5,185.5C 1031.56,180.93 1031.23,176.263 1031.5,171.5C 1031.92,168.841 1032.92,166.508 1034.5,164.5 Z"/></g>
<g><path style="opacity:0.976" fill="#a97ccc" d="M 1034.5,164.5 C 1032.92,166.508 1031.92,168.841 1031.5,171.5C 1031.5,168.833 1031.5,166.167 1031.5,163.5C 1032.79,163.263 1033.79,163.596 1034.5,164.5 Z"/></g>
<g><path style="opacity:0.31" fill="#44585c" d="M 820.5,193.5 C 805.833,193.5 791.167,193.5 776.5,193.5C 776.5,193.167 776.5,192.833 776.5,192.5C 791.538,193.15 806.205,192.483 820.5,190.5C 820.557,189.391 820.89,188.391 821.5,187.5C 823.942,185.879 825.275,183.546 825.5,180.5C 828.092,178.964 829.092,176.631 828.5,173.5C 788.5,173.5 748.5,173.5 708.5,173.5C 708.5,179.833 708.5,186.167 708.5,192.5C 724.167,192.5 739.833,192.5 755.5,192.5C 755.168,233.003 755.501,273.337 756.5,313.5C 762.979,314.491 769.646,314.824 776.5,314.5C 776.389,315.117 776.056,315.617 775.5,316C 768.782,316.795 762.116,316.628 755.5,315.5C 754.5,275.172 754.167,234.839 754.5,194.5C 739.163,194.667 723.83,194.5 708.5,194C 707.214,190.767 706.547,187.267 706.5,183.5C 706.518,179.916 706.852,176.416 707.5,173C 748.499,172.5 789.499,172.333 830.5,172.5C 829.78,178.955 827.614,184.955 824,190.5C 822.961,191.71 821.794,192.71 820.5,193.5 Z"/></g>
<g><path style="opacity:0.361" fill="#5c6474" d="M 1040.5,168.5 C 1041.83,168.5 1043.17,168.5 1044.5,168.5C 1053.91,174.386 1063.25,180.552 1072.5,187C 1078.59,191.349 1081.92,197.182 1082.5,204.5C 1082.83,214.015 1082.49,223.348 1081.5,232.5C 1081.67,223.827 1081.5,215.16 1081,206.5C 1079.89,202.271 1078.22,198.271 1076,194.5C 1063.96,185.938 1052.13,177.272 1040.5,168.5 Z"/></g>
<g><path style="opacity:0.167" fill="#525f6b" d="M 918.5,245.5 C 919.317,248.479 920.151,251.479 921,254.5C 921.759,256.063 922.926,257.063 924.5,257.5C 923.996,261.481 925.329,264.481 928.5,266.5C 934.937,278.805 940.603,291.472 945.5,304.5C 943.457,302.792 941.79,300.792 940.5,298.5C 937.76,294.022 935.26,289.356 933,284.5C 920.053,255.137 907.219,225.804 894.5,196.5C 894.293,193.759 893.293,191.426 891.5,189.5C 888.989,184.658 886.656,179.658 884.5,174.5C 877.679,173.345 870.679,173.179 863.5,174C 860.804,178.223 858.804,182.723 857.5,187.5C 857.657,188.873 857.49,190.207 857,191.5C 850.933,202.965 845.433,214.631 840.5,226.5C 838.229,228.612 836.896,231.279 836.5,234.5C 828.943,253.124 820.943,271.458 812.5,289.5C 810.127,291.579 808.794,294.246 808.5,297.5C 806.695,302.249 804.695,306.915 802.5,311.5C 801.596,312.209 801.263,313.209 801.5,314.5C 808.5,314.5 815.5,314.5 822.5,314.5C 815.687,315.491 808.687,315.825 801.5,315.5C 800.351,315.209 799.684,314.376 799.5,313C 819.934,266.01 840.934,219.343 862.5,173C 870.746,172.185 878.912,172.352 887,173.5C 898.36,197.211 908.86,221.211 918.5,245.5 Z"/></g>
<g><path style="opacity:0.806" fill="#87869b" d="M 884.5,174.5 C 877.825,174.334 871.158,174.5 864.5,175C 862.266,179.31 859.932,183.476 857.5,187.5C 858.804,182.723 860.804,178.223 863.5,174C 870.679,173.179 877.679,173.345 884.5,174.5 Z"/></g>
<g><path style="opacity:1" fill="#c052fe" d="M 710.5,175.5 C 749.514,174.839 788.181,175.506 826.5,177.5C 825.89,178.391 825.557,179.391 825.5,180.5C 823.801,182.566 822.468,184.9 821.5,187.5C 820.89,188.391 820.557,189.391 820.5,190.5C 805.402,191.152 790.402,191.818 775.5,192.5C 774.501,232.33 774.168,272.33 774.5,312.5C 768.833,312.5 763.167,312.5 757.5,312.5C 757.832,272.33 757.499,232.33 756.5,192.5C 756.5,191.833 756.167,191.5 755.5,191.5C 740.676,190.504 725.676,190.171 710.5,190.5C 710.5,185.5 710.5,180.5 710.5,175.5 Z"/></g>
<g><path style="opacity:1" fill="#bf55fd" d="M 884.5,174.5 C 886.656,179.658 888.989,184.658 891.5,189.5C 891.182,192.481 892.182,194.815 894.5,196.5C 907.219,225.804 920.053,255.137 933,284.5C 935.26,289.356 937.76,294.022 940.5,298.5C 942.169,303.17 943.836,307.837 945.5,312.5C 938.549,313.066 931.882,312.399 925.5,310.5C 925.167,310.5 924.833,310.5 924.5,310.5C 924.248,306.673 922.915,303.34 920.5,300.5C 911.398,278.506 901.731,256.839 891.5,235.5C 890.56,230.296 888.56,225.63 885.5,221.5C 883.833,217.5 882.167,213.5 880.5,209.5C 879.398,205.292 877.731,201.292 875.5,197.5C 874.675,196.614 873.675,196.281 872.5,196.5C 869.317,204.042 866.317,211.709 863.5,219.5C 860.316,225.206 857.65,231.206 855.5,237.5C 853.517,242.136 851.517,246.803 849.5,251.5C 846.754,254.999 845.087,258.999 844.5,263.5C 858.579,263.185 872.579,263.518 886.5,264.5C 886.796,266.403 887.463,268.07 888.5,269.5C 888.957,273.78 890.291,277.78 892.5,281.5C 873.338,282.167 854.338,282.833 835.5,283.5C 831.807,290.879 828.474,298.546 825.5,306.5C 823.896,307.287 823.229,308.62 823.5,310.5C 823.443,311.609 823.11,312.609 822.5,313.5C 815.416,314.126 808.75,313.459 802.5,311.5C 804.695,306.915 806.695,302.249 808.5,297.5C 810.341,295.151 811.674,292.485 812.5,289.5C 820.943,271.458 828.943,253.124 836.5,234.5C 838.387,232.211 839.721,229.545 840.5,226.5C 845.433,214.631 850.933,202.965 857,191.5C 857.49,190.207 857.657,188.873 857.5,187.5C 859.932,183.476 862.266,179.31 864.5,175C 871.158,174.5 877.825,174.334 884.5,174.5 Z"/></g>
<g><path style="opacity:0.976" fill="#a57bc7" d="M 1031.5,171.5 C 1031.23,176.263 1031.56,180.93 1032.5,185.5C 1031.2,183.603 1030.53,181.269 1030.5,178.5C 1030.5,175.975 1030.84,173.641 1031.5,171.5 Z"/></g>
<g><path style="opacity:0.333" fill="#795f6b" d="M 315.5,156.5 C 315.5,210.167 315.5,263.833 315.5,317.5C 314.833,317.5 314.167,317.5 313.5,317.5C 314.662,264.237 314.828,210.904 314,157.5C 313.25,156.874 312.416,156.374 311.5,156C 303.833,155.333 296.167,155.333 288.5,156C 287.627,157.045 286.627,157.878 285.5,158.5C 285.511,156.983 286.177,155.816 287.5,155C 295.833,154.333 304.167,154.333 312.5,155C 313.527,155.513 314.527,156.013 315.5,156.5 Z"/></g>
<g><path style="opacity:0.318" fill="#53606b" d="M 982.5,208.5 C 981.833,208.5 981.167,208.5 980.5,208.5C 980.5,207.833 980.5,207.167 980.5,206.5C 989.651,198.663 999.484,191.663 1010,185.5C 1010.32,178.476 1010.82,171.476 1011.5,164.5C 1008.92,162.984 1006.92,163.651 1005.5,166.5C 1003.97,166.427 1002.97,167.094 1002.5,168.5C 995.269,174.602 987.603,179.936 979.5,184.5C 976.489,185.669 973.822,187.336 971.5,189.5C 970.167,191.5 968.5,193.167 966.5,194.5C 964.654,196.03 963.654,198.03 963.5,200.5C 963.167,201.833 962.833,203.167 962.5,204.5C 961.883,204.611 961.383,204.944 961,205.5C 960.17,234.67 960.336,263.67 961.5,292.5C 963.212,301.265 967.879,307.932 975.5,312.5C 975.833,313.167 976.167,313.833 976.5,314.5C 967.643,311.139 962.143,304.806 960,295.5C 959.037,263.46 959.37,231.46 961,199.5C 962.396,195.208 964.896,191.708 968.5,189C 980.658,180.087 992.992,171.421 1005.5,163C 1008.22,160.924 1011.22,160.257 1014.5,161C 1015.02,161.561 1015.36,162.228 1015.5,163C 1014.62,170.815 1013.78,178.648 1013,186.5C 1002.68,193.732 992.511,201.066 982.5,208.5 Z"/></g>
<g><path style="opacity:0.976" fill="#aa7dcd" d="M 1005.5,166.5 C 1005.03,167.906 1004.03,168.573 1002.5,168.5C 1002.97,167.094 1003.97,166.427 1005.5,166.5 Z"/></g>
<g><path style="opacity:0.996" fill="#b37ada" d="M 1011.5,164.5 C 1009.58,165.363 1007.58,166.029 1005.5,166.5C 1006.92,163.651 1008.92,162.984 1011.5,164.5 Z"/></g>
<g><path style="opacity:1" fill="#dbcdcf" d="M 106.5,158.5 C 106.333,194.835 106.5,231.168 107,267.5C 114.222,269.444 121.722,270.111 129.5,269.5C 122.018,270.492 114.352,270.825 106.5,270.5C 105.833,270.5 105.167,270.5 104.5,270.5C 104.333,233.498 104.5,196.498 105,159.5C 105.383,158.944 105.883,158.611 106.5,158.5 Z"/></g>
<g><path style="opacity:0.153" fill="#482633" d="M 315.5,156.5 C 314.527,156.013 313.527,155.513 312.5,155C 304.167,154.333 295.833,154.333 287.5,155C 286.177,155.816 285.511,156.983 285.5,158.5C 284.335,210.665 284.168,262.998 285,315.5C 285.5,316.667 286.333,317.5 287.5,318C 296.245,318.802 304.912,318.636 313.5,317.5C 314.167,317.5 314.833,317.5 315.5,317.5C 314.653,318.966 313.32,319.8 311.5,320C 304.167,320.667 296.833,320.667 289.5,320C 286.966,319.484 284.8,318.317 283,316.5C 282.333,263.5 282.333,210.5 283,157.5C 283.785,155.714 284.951,154.214 286.5,153C 295.5,152.333 304.5,152.333 313.5,153C 314.823,153.816 315.489,154.983 315.5,156.5 Z"/></g>
<g><path style="opacity:0.643" fill="#8a6e79" d="M 128.5,154.5 C 130.911,154.137 132.411,155.137 133,157.5C 133.5,173.83 133.667,190.163 133.5,206.5C 137.495,205.947 141.161,204.614 144.5,202.5C 143.167,203.833 141.833,205.167 140.5,206.5C 139.373,207.122 138.373,207.955 137.5,209C 135.613,209.78 133.946,209.613 132.5,208.5C 132.667,191.83 132.5,175.163 132,158.5C 131.5,158 131,157.5 130.5,157C 122.655,156.178 114.989,156.344 107.5,157.5C 106.833,157.5 106.5,157.833 106.5,158.5C 105.883,158.611 105.383,158.944 105,159.5C 104.5,196.498 104.333,233.498 104.5,270.5C 103.336,232.669 103.169,194.669 104,156.5C 104.5,156 105,155.5 105.5,155C 113.159,154.5 120.826,154.334 128.5,154.5 Z"/></g>
<g><path style="opacity:1" fill="#be9ea3" d="M 107.5,157.5 C 114.989,156.344 122.655,156.178 130.5,157C 131,157.5 131.5,158 132,158.5C 132.5,175.163 132.667,191.83 132.5,208.5C 131.833,192.167 131.167,175.833 130.5,159.5C 130.389,158.883 130.056,158.383 129.5,158C 122.174,157.5 114.841,157.334 107.5,157.5 Z"/></g>
<g><path style="opacity:0.745" fill="#a0818a" d="M 313.5,317.5 C 304.912,318.636 296.245,318.802 287.5,318C 286.333,317.5 285.5,316.667 285,315.5C 284.168,262.998 284.335,210.665 285.5,158.5C 286.627,157.878 287.627,157.045 288.5,156C 296.167,155.333 303.833,155.333 311.5,156C 312.416,156.374 313.25,156.874 314,157.5C 314.828,210.904 314.662,264.237 313.5,317.5 Z"/></g>
<g><path style="opacity:1" fill="#ddcdd0" d="M 312.5,315.5 C 312.389,316.117 312.056,316.617 311.5,317C 304.167,317.667 296.833,317.667 289.5,317C 288.333,316.5 287.5,315.667 287,314.5C 286.333,262.833 286.333,211.167 287,159.5C 287.5,159 288,158.5 288.5,158C 296.746,157.185 304.912,157.352 313,158.5C 313.832,211.002 313.665,263.335 312.5,315.5 Z"/></g>
<g><path style="opacity:1" fill="#fdfdfd" d="M 312.5,315.5 C 304.58,315.815 296.747,315.482 289,314.5C 288.169,262.596 288.336,210.763 289.5,159C 297.08,158.187 304.58,158.353 312,159.5C 312.5,211.499 312.667,263.499 312.5,315.5 Z"/></g>
<g><path style="opacity:0.086" fill="#30202f" d="M 315.5,156.5 C 316.222,156.918 316.722,157.584 317,158.5C 317.667,211.167 317.667,263.833 317,316.5C 316.617,317.056 316.117,317.389 315.5,317.5C 315.5,263.833 315.5,210.167 315.5,156.5 Z"/></g>
<g><path style="opacity:1" fill="#e2d0d1" d="M 130.5,159.5 C 131.167,175.833 131.833,192.167 132.5,208.5C 133.946,209.613 135.613,209.78 137.5,209C 138.373,207.955 139.373,207.122 140.5,206.5C 141.833,206.167 143.167,205.833 144.5,205.5C 141.947,206.887 139.614,208.72 137.5,211C 134.975,211.896 132.808,211.396 131,209.5C 130.5,192.837 130.333,176.17 130.5,159.5 Z"/></g>
<g><path style="opacity:0.953" fill="#9980b7" d="M 825.5,180.5 C 825.275,183.546 823.942,185.879 821.5,187.5C 822.468,184.9 823.801,182.566 825.5,180.5 Z"/></g>
<g><path style="opacity:0.988" fill="#b07bd6" d="M 979.5,184.5 C 977.47,187.182 974.803,188.849 971.5,189.5C 973.822,187.336 976.489,185.669 979.5,184.5 Z"/></g>
<g><path style="opacity:0.992" fill="#ca82f5" d="M 710.5,175.5 C 710.5,180.5 710.5,185.5 710.5,190.5C 725.676,190.171 740.676,190.504 755.5,191.5C 740.167,191.5 724.833,191.5 709.5,191.5C 709.179,185.974 709.512,180.64 710.5,175.5 Z"/></g>
<g><path style="opacity:0.964" fill="#aca0c1" d="M 820.5,190.5 C 806.205,192.483 791.538,193.15 776.5,192.5C 776.167,192.5 775.833,192.5 775.5,192.5C 790.402,191.818 805.402,191.152 820.5,190.5 Z"/></g>
<g><path style="opacity:0.988" fill="#c682f2" d="M 756.5,192.5 C 757.499,232.33 757.832,272.33 757.5,312.5C 763.167,312.5 768.833,312.5 774.5,312.5C 774.168,272.33 774.501,232.33 775.5,192.5C 775.5,232.833 775.5,273.167 775.5,313.5C 769.167,313.5 762.833,313.5 756.5,313.5C 756.5,273.167 756.5,232.833 756.5,192.5 Z"/></g>
<g><path style="opacity:0.714" fill="#30484b" d="M 776.5,193.5 C 791.167,193.5 805.833,193.5 820.5,193.5C 806.343,194.496 792.01,194.829 777.5,194.5C 777.832,234.67 777.499,274.67 776.5,314.5C 776.5,274.167 776.5,233.833 776.5,193.5 Z"/></g>
<g><path style="opacity:0.898" fill="#978fac" d="M 891.5,189.5 C 893.293,191.426 894.293,193.759 894.5,196.5C 892.182,194.815 891.182,192.481 891.5,189.5 Z"/></g>
<g><path style="opacity:0.063" fill="#2c1726" d="M 610.5,215.5 C 611.083,209.25 611.083,203.083 610.5,197C 606.741,195.087 602.741,194.253 598.5,194.5C 593.723,194.541 589.057,195.207 584.5,196.5C 593.342,191.554 602.342,191.387 611.5,196C 612.561,197.849 613.227,199.849 613.5,202C 613.104,206.772 612.104,211.272 610.5,215.5 Z"/></g>
<g><path style="opacity:0.929" fill="#86839c" d="M 825.5,180.5 C 825.557,179.391 825.89,178.391 826.5,177.5C 827.404,176.791 827.737,175.791 827.5,174.5C 788.33,174.168 749.33,174.501 710.5,175.5C 709.512,180.64 709.179,185.974 709.5,191.5C 724.833,191.5 740.167,191.5 755.5,191.5C 756.167,191.5 756.5,191.833 756.5,192.5C 756.5,232.833 756.5,273.167 756.5,313.5C 755.501,273.337 755.168,233.003 755.5,192.5C 739.833,192.5 724.167,192.5 708.5,192.5C 708.5,186.167 708.5,179.833 708.5,173.5C 748.5,173.5 788.5,173.5 828.5,173.5C 829.092,176.631 828.092,178.964 825.5,180.5 Z"/></g>
<g><path style="opacity:0.953" fill="#bc7fe3" d="M 710.5,175.5 C 749.33,174.501 788.33,174.168 827.5,174.5C 827.737,175.791 827.404,176.791 826.5,177.5C 788.181,175.506 749.514,174.839 710.5,175.5 Z"/></g>
<g><path style="opacity:0.929" fill="#717f82" d="M 775.5,192.5 C 775.833,192.5 776.167,192.5 776.5,192.5C 776.5,192.833 776.5,193.167 776.5,193.5C 776.5,233.833 776.5,274.167 776.5,314.5C 769.646,314.824 762.979,314.491 756.5,313.5C 762.833,313.5 769.167,313.5 775.5,313.5C 775.5,273.167 775.5,232.833 775.5,192.5 Z"/></g>
<g><path style="opacity:0.108" fill="#593f4c" d="M 171.5,196.5 C 184.05,196.569 195.05,200.569 204.5,208.5C 205.865,210.86 207.865,212.527 210.5,213.5C 210.5,214.167 210.5,214.833 210.5,215.5C 207.339,214.087 204.339,212.42 201.5,210.5C 198.39,207.661 195.057,204.995 191.5,202.5C 177.999,198.123 164.333,197.456 150.5,200.5C 152.277,199.4 154.277,198.566 156.5,198C 161.684,197.826 166.684,197.326 171.5,196.5 Z"/></g>
<g><path style="opacity:0.198" fill="#472f3e" d="M 465.5,205.5 C 461.545,204.197 457.545,202.864 453.5,201.5C 437.921,197.543 422.254,197.543 406.5,201.5C 409.991,199.861 413.657,198.361 417.5,197C 429.077,195.153 440.744,195.82 452.5,199C 457.204,200.685 461.538,202.852 465.5,205.5 Z"/></g>
<g><path style="opacity:0.984" fill="#ab7dcf" d="M 966.5,194.5 C 966.346,196.97 965.346,198.97 963.5,200.5C 963.654,198.03 964.654,196.03 966.5,194.5 Z"/></g>
<g><path style="opacity:0.906" fill="#9e82bc" d="M 1025.5,196.5 C 1030.5,196.512 1033.84,198.845 1035.5,203.5C 1032.67,200.325 1029.34,197.992 1025.5,196.5 Z"/></g>
<g><path style="opacity:1" fill="#fcfbfb" d="M 587.5,199.5 C 594.5,199.5 601.5,199.5 608.5,199.5C 608.328,203.534 607.828,207.534 607,211.5C 603.903,214.86 602.736,218.86 603.5,223.5C 594.265,222.777 585.765,224.777 578,229.5C 575,233.167 572,236.833 569,240.5C 568.51,241.793 568.343,243.127 568.5,244.5C 568.107,246.284 567.441,247.95 566.5,249.5C 564.87,258.229 565.37,266.896 568,275.5C 569.512,276.257 570.846,277.257 572,278.5C 572.093,281.007 572.926,283.174 574.5,285C 579.536,287.518 584.536,290.018 589.5,292.5C 595.472,293.664 601.472,293.83 607.5,293C 611.126,290.711 614.626,288.211 618,285.5C 619.44,284.852 620.94,284.519 622.5,284.5C 622.5,283.5 622.5,282.5 622.5,281.5C 624.423,278.397 626.59,275.397 629,272.5C 629.452,269.851 630.286,267.351 631.5,265C 639.831,264.633 647.831,266.133 655.5,269.5C 656.452,271.045 656.785,272.712 656.5,274.5C 655.883,274.611 655.383,274.944 655,275.5C 654.667,278.167 654.333,280.833 654,283.5C 651.341,285.06 650.174,287.393 650.5,290.5C 649.325,290.281 648.325,290.614 647.5,291.5C 646.531,294.302 644.698,296.302 642,297.5C 641.537,301.963 639.037,304.463 634.5,305C 633.167,306.333 631.833,307.667 630.5,309C 625.327,309.276 620.994,311.276 617.5,315C 604.603,317.795 591.603,318.295 578.5,316.5C 578.092,315.357 577.425,314.357 576.5,313.5C 567.817,309.161 559.817,303.827 552.5,297.5C 550.5,297.5 549.5,296.5 549.5,294.5C 547.753,290.589 546.253,286.589 545,282.5C 543.624,281.295 542.458,279.962 541.5,278.5C 540.818,268.181 540.485,257.847 540.5,247.5C 540.952,243.837 541.452,240.17 542,236.5C 544.087,234.255 545.421,231.588 546,228.5C 547.039,227.29 548.206,226.29 549.5,225.5C 551.463,224.04 553.296,222.373 555,220.5C 556.29,216.76 558.457,213.593 561.5,211C 565.04,208.816 568.707,206.816 572.5,205C 577.992,204.217 582.992,202.384 587.5,199.5 Z"/></g>
<g><path style="opacity:0.871" fill="#a0858e" d="M 453.5,201.5 C 438.298,199.414 423.298,200.247 408.5,204C 405.907,206.114 403.24,207.947 400.5,209.5C 399.833,209.5 399.167,209.5 398.5,209.5C 399.894,207.292 401.894,205.792 404.5,205C 405.305,203.887 405.972,202.721 406.5,201.5C 422.254,197.543 437.921,197.543 453.5,201.5 Z"/></g>
<g><path style="opacity:1" fill="#dfd1d3" d="M 453.5,201.5 C 454.551,202.222 455.218,203.222 455.5,204.5C 440.172,201.847 424.839,202.014 409.5,205C 407.027,207.547 404.027,209.047 400.5,209.5C 403.24,207.947 405.907,206.114 408.5,204C 423.298,200.247 438.298,199.414 453.5,201.5 Z"/></g>
<g><path style="opacity:0.471" fill="#3d4f54" d="M 880.5,209.5 C 882.167,213.5 883.833,217.5 885.5,221.5C 885.5,222.833 885.5,224.167 885.5,225.5C 881.697,217.894 877.864,210.227 874,202.5C 866.071,221.968 857.571,241.135 848.5,260C 861.5,260.333 874.5,260.667 887.5,261C 892.041,268.237 894.708,276.07 895.5,284.5C 876.497,284.333 857.497,284.5 838.5,285C 837.956,285.717 837.289,286.217 836.5,286.5C 835.662,286.158 835.328,285.492 835.5,284.5C 854.757,283.513 874.091,283.18 893.5,283.5C 893.662,281.473 893.495,279.473 893,277.5C 891.79,274.497 890.29,271.83 888.5,269.5C 887.463,268.07 886.796,266.403 886.5,264.5C 873.542,262.519 860.209,261.852 846.5,262.5C 847.793,258.914 848.793,255.248 849.5,251.5C 851.517,246.803 853.517,242.136 855.5,237.5C 859.507,232.166 862.173,226.166 863.5,219.5C 866.893,212.858 870.393,206.192 874,199.5C 875.942,203.069 878.108,206.402 880.5,209.5 Z"/></g>
<g><path style="opacity:0.902" fill="#8a81a3" d="M 880.5,209.5 C 878.108,206.402 875.942,203.069 874,199.5C 870.393,206.192 866.893,212.858 863.5,219.5C 866.317,211.709 869.317,204.042 872.5,196.5C 873.675,196.281 874.675,196.614 875.5,197.5C 877.731,201.292 879.398,205.292 880.5,209.5 Z"/></g>
<g><path style="opacity:1" fill="#e6dadc" d="M 201.5,210.5 C 204.339,212.42 207.339,214.087 210.5,215.5C 210.517,217.565 210.85,219.565 211.5,221.5C 208.4,218.371 205.067,215.371 201.5,212.5C 197.546,210.039 193.546,207.872 189.5,206C 174.91,202.19 160.244,201.69 145.5,204.5C 146.058,203.21 147.058,202.377 148.5,202C 157.809,200.766 167.142,200.433 176.5,201C 180.564,202.889 184.897,203.889 189.5,204C 193.387,206.461 197.387,208.628 201.5,210.5 Z"/></g>
<g><path style="opacity:0.945" fill="#a68c94" d="M 201.5,210.5 C 197.387,208.628 193.387,206.461 189.5,204C 184.897,203.889 180.564,202.889 176.5,201C 167.142,200.433 157.809,200.766 148.5,202C 147.058,202.377 146.058,203.21 145.5,204.5C 144.833,204.5 144.5,204.833 144.5,205.5C 143.167,205.833 141.833,206.167 140.5,206.5C 141.833,205.167 143.167,203.833 144.5,202.5C 146.102,200.926 148.102,200.259 150.5,200.5C 164.333,197.456 177.999,198.123 191.5,202.5C 195.057,204.995 198.39,207.661 201.5,210.5 Z"/></g>
<g><path style="opacity:1" fill="#fcfbfb" d="M 455.5,204.5 C 461.951,208.444 468.284,212.611 474.5,217C 475.977,218.812 477.31,220.645 478.5,222.5C 482.463,229.752 486.463,237.085 490.5,244.5C 490.666,253.839 490.5,263.173 490,272.5C 487.701,278.034 485.868,283.7 484.5,289.5C 483.519,291.309 482.019,292.643 480,293.5C 477.809,299.569 473.975,304.236 468.5,307.5C 463.337,310.054 458.337,312.887 453.5,316C 443.288,318.073 432.955,318.906 422.5,318.5C 419.833,318.5 417.167,318.5 414.5,318.5C 400.623,313.128 389.123,304.462 380,292.5C 379.187,290.564 378.687,288.564 378.5,286.5C 376.549,277.861 374.216,269.361 371.5,261C 373.811,254.05 375.311,246.883 376,239.5C 377.209,236.293 378.209,232.959 379,229.5C 385.73,222.938 392.23,216.271 398.5,209.5C 399.167,209.5 399.833,209.5 400.5,209.5C 404.027,209.047 407.027,207.547 409.5,205C 424.839,202.014 440.172,201.847 455.5,204.5 Z M 458.5,272.5 C 455.542,277.126 451.876,281.126 447.5,284.5C 438.275,289.271 428.941,289.604 419.5,285.5C 418.391,285.443 417.391,285.11 416.5,284.5C 413.5,281.833 410.5,279.167 407.5,276.5C 406.209,272.948 404.542,269.614 402.5,266.5C 403.446,261.801 403.446,257.134 402.5,252.5C 407.354,241.893 415.354,234.727 426.5,231C 429.167,230.333 431.833,230.333 434.5,231C 456.631,236.77 464.631,250.604 458.5,272.5 Z"/></g>
<g><path style="opacity:0.224" fill="#3f2f3a" d="M 583.5,196.5 C 578.933,198.443 574.266,200.443 569.5,202.5C 567.502,205.014 564.835,206.347 561.5,206.5C 567.607,200.678 574.94,197.344 583.5,196.5 Z"/></g>
<g><path style="opacity:0.129" fill="#301b2d" d="M 204.5,208.5 C 207.089,209.419 209.089,211.086 210.5,213.5C 207.865,212.527 205.865,210.86 204.5,208.5 Z"/></g>
<g><path style="opacity:0.902" fill="#8d8ca1" d="M 962.5,204.5 C 961.524,233.802 961.191,263.135 961.5,292.5C 960.336,263.67 960.17,234.67 961,205.5C 961.383,204.944 961.883,204.611 962.5,204.5 Z"/></g>
<g><path style="opacity:0.086" fill="#415558" d="M 980.5,208.5 C 981.167,208.5 981.833,208.5 982.5,208.5C 982.333,236.169 982.5,263.835 983,291.5C 983.5,292 984,292.5 984.5,293C 1009.17,293.667 1033.83,293.667 1058.5,293C 1059,292.5 1059.5,292 1060,291.5C 1060.5,284.842 1060.67,278.175 1060.5,271.5C 1062.46,277.75 1063.13,284.416 1062.5,291.5C 1062.67,292.492 1062.34,293.158 1061.5,293.5C 1060.71,293.783 1060.04,294.283 1059.5,295C 1034.17,295.667 1008.83,295.667 983.5,295C 983,294.5 982.5,294 982,293.5C 980.517,265.255 980.017,236.922 980.5,208.5 Z"/></g>
<g><path style="opacity:0.902" fill="#9791aa" d="M 1007.5,201.5 C 1004.89,208.181 1004.89,214.847 1007.5,221.5C 1006.22,221.218 1005.22,220.551 1004.5,219.5C 1002.45,212.87 1003.45,206.87 1007.5,201.5 Z"/></g>
<g><path style="opacity:0.435" fill="#5c4554" d="M 406.5,201.5 C 405.972,202.721 405.305,203.887 404.5,205C 401.894,205.792 399.894,207.292 398.5,209.5C 388.079,214.92 380.412,222.92 375.5,233.5C 373.9,235.703 372.567,238.036 371.5,240.5C 372.737,232.692 376.071,226.025 381.5,220.5C 384.335,217.835 387.335,215.335 390.5,213C 392.141,211.871 393.141,210.371 393.5,208.5C 397.119,204.891 401.452,202.557 406.5,201.5 Z"/></g>
<g><path style="opacity:0.043" fill="#332033" d="M 561.5,206.5 C 558.457,210.544 554.791,213.877 550.5,216.5C 550.511,214.983 551.177,213.816 552.5,213C 555.397,210.59 558.397,208.423 561.5,206.5 Z"/></g>
<g><path style="opacity:0.043" fill="#2b1928" d="M 210.5,213.5 C 212.633,215.091 214.299,217.091 215.5,219.5C 213.427,218.7 211.76,217.367 210.5,215.5C 210.5,214.833 210.5,214.167 210.5,213.5 Z"/></g>
<g><path style="opacity:0.141" fill="#4b3040" d="M 465.5,205.5 C 471.268,208.676 476.435,212.676 481,217.5C 481.791,218.745 482.291,220.078 482.5,221.5C 479.8,219.581 477.467,217.248 475.5,214.5C 472.634,212.422 469.634,210.589 466.5,209C 465.663,207.989 465.33,206.822 465.5,205.5 Z"/></g>
<g><path style="opacity:0.039" fill="#241826" d="M 393.5,208.5 C 393.141,210.371 392.141,211.871 390.5,213C 387.335,215.335 384.335,217.835 381.5,220.5C 384.479,215.521 388.479,211.521 393.5,208.5 Z"/></g>
<g><path style="opacity:0.157" fill="#402d3b" d="M 550.5,216.5 C 549.412,220.443 547.246,223.776 544,226.5C 543.632,230.686 541.799,234.02 538.5,236.5C 540.469,228.566 544.469,221.899 550.5,216.5 Z"/></g>
<g><path style="opacity:0.733" fill="#8f747e" d="M 610.5,215.5 C 609.883,215.611 609.383,215.944 609,216.5C 608.452,220.17 607.952,223.837 607.5,227.5C 607.5,228.167 607.167,228.5 606.5,228.5C 599.727,228.2 593.06,228.867 586.5,230.5C 586.137,231.183 585.804,231.85 585.5,232.5C 583.073,232.523 580.74,233.023 578.5,234C 576.584,236.09 574.584,237.923 572.5,239.5C 574.471,235.027 577.804,232.193 582.5,231C 583.5,230 584.5,229 585.5,228C 591.803,227.058 598.137,226.391 604.5,226C 605,225.5 605.5,225 606,224.5C 606.954,217.302 608.121,210.135 609.5,203C 609.167,201.5 608.833,200 608.5,198.5C 605.388,197.875 602.221,197.541 599,197.5C 594.867,197.286 591.034,197.952 587.5,199.5C 582.671,201.239 577.671,202.405 572.5,203C 568.593,205.521 564.593,207.855 560.5,210C 557.117,213.928 553.617,217.761 550,221.5C 549.51,222.793 549.343,224.127 549.5,225.5C 548.206,226.29 547.039,227.29 546,228.5C 545.421,231.588 544.087,234.255 542,236.5C 541.452,240.17 540.952,243.837 540.5,247.5C 539.182,250.258 538.515,253.424 538.5,257C 538.661,264.419 539.661,271.586 541.5,278.5C 542.458,279.962 543.624,281.295 545,282.5C 546.253,286.589 547.753,290.589 549.5,294.5C 547.341,291.307 545.007,288.307 542.5,285.5C 539.487,280.648 537.653,275.315 537,269.5C 536.333,261.833 536.333,254.167 537,246.5C 538.316,243.312 538.816,239.978 538.5,236.5C 541.799,234.02 543.632,230.686 544,226.5C 547.246,223.776 549.412,220.443 550.5,216.5C 554.791,213.877 558.457,210.544 561.5,206.5C 564.835,206.347 567.502,205.014 569.5,202.5C 574.266,200.443 578.933,198.443 583.5,196.5C 583.833,196.5 584.167,196.5 584.5,196.5C 589.057,195.207 593.723,194.541 598.5,194.5C 602.741,194.253 606.741,195.087 610.5,197C 611.083,203.083 611.083,209.25 610.5,215.5 Z"/></g>
<g><path style="opacity:1" fill="#dbcccf" d="M 587.5,199.5 C 582.992,202.384 577.992,204.217 572.5,205C 568.707,206.816 565.04,208.816 561.5,211C 558.457,213.593 556.29,216.76 555,220.5C 553.296,222.373 551.463,224.04 549.5,225.5C 549.343,224.127 549.51,222.793 550,221.5C 553.617,217.761 557.117,213.928 560.5,210C 564.593,207.855 568.593,205.521 572.5,203C 577.671,202.405 582.671,201.239 587.5,199.5 Z"/></g>
<g><path style="opacity:0.047" fill="#231f2d" d="M 610.5,215.5 C 610.342,219.841 609.342,223.841 607.5,227.5C 607.952,223.837 608.452,220.17 609,216.5C 609.383,215.944 609.883,215.611 610.5,215.5 Z"/></g>
<g><path style="opacity:1" fill="#cbb8bd" d="M 398.5,209.5 C 392.23,216.271 385.73,222.938 379,229.5C 378.209,232.959 377.209,236.293 376,239.5C 375.311,246.883 373.811,254.05 371.5,261C 374.216,269.361 376.549,277.861 378.5,286.5C 374.267,282.114 372.434,276.781 373,270.5C 372.385,268.884 371.385,267.551 370,266.5C 369.833,264.333 369.667,262.167 369.5,260C 372.267,251.434 374.267,242.601 375.5,233.5C 380.412,222.92 388.079,214.92 398.5,209.5 Z"/></g>
<g><path style="opacity:0.247" fill="#3d2b37" d="M 482.5,221.5 C 488.933,229.033 493.266,237.7 495.5,247.5C 492.159,241.142 488.992,234.475 486,227.5C 483.09,226.55 481.923,224.55 482.5,221.5 Z"/></g>
<g><path style="opacity:1" fill="#dac9cd" d="M 572.5,239.5 C 571.833,239.5 571.5,239.833 571.5,240.5C 570.143,241.59 569.143,242.924 568.5,244.5C 568.343,243.127 568.51,241.793 569,240.5C 572,236.833 575,233.167 578,229.5C 585.765,224.777 594.265,222.777 603.5,223.5C 602.736,218.86 603.903,214.86 607,211.5C 607.828,207.534 608.328,203.534 608.5,199.5C 601.5,199.5 594.5,199.5 587.5,199.5C 591.034,197.952 594.867,197.286 599,197.5C 602.221,197.541 605.388,197.875 608.5,198.5C 608.833,200 609.167,201.5 609.5,203C 608.121,210.135 606.954,217.302 606,224.5C 605.5,225 605,225.5 604.5,226C 598.137,226.391 591.803,227.058 585.5,228C 584.5,229 583.5,230 582.5,231C 577.804,232.193 574.471,235.027 572.5,239.5 Z"/></g>
<g><path style="opacity:0.804" fill="#9484ad" d="M 885.5,221.5 C 888.56,225.63 890.56,230.296 891.5,235.5C 889.487,232.134 887.487,228.801 885.5,225.5C 885.5,224.167 885.5,222.833 885.5,221.5 Z"/></g>
<g><path style="opacity:0.843" fill="#8b707c" d="M 210.5,215.5 C 211.76,217.367 213.427,218.7 215.5,219.5C 219.066,224.862 222.066,230.529 224.5,236.5C 222.589,235.925 220.922,234.925 219.5,233.5C 219.762,232.022 219.429,230.689 218.5,229.5C 216.159,226.802 213.826,224.135 211.5,221.5C 210.85,219.565 210.517,217.565 210.5,215.5 Z"/></g>
<g><path style="opacity:1" fill="#d3c1c4" d="M 478.5,222.5 C 484.629,228.64 488.629,235.973 490.5,244.5C 486.463,237.085 482.463,229.752 478.5,222.5 Z"/></g>
<g><path style="opacity:0.758" fill="#9a838b" d="M 461.5,244.5 C 461.461,245.756 461.961,246.756 463,247.5C 463.667,255.167 463.667,262.833 463,270.5C 462.434,273.229 460.934,275.229 458.5,276.5C 458.5,275.167 458.5,273.833 458.5,272.5C 459.458,272.047 460.292,271.381 461,270.5C 464.927,255.451 461.094,242.951 449.5,233C 437.191,227.911 425.191,228.411 413.5,234.5C 412.614,235.325 412.281,236.325 412.5,237.5C 411.167,237.5 409.833,237.5 408.5,237.5C 408.762,238.978 408.429,240.311 407.5,241.5C 405.41,243.551 403.743,245.884 402.5,248.5C 401.685,249.429 400.852,250.429 400,251.5C 399.501,257.491 399.334,263.491 399.5,269.5C 398.347,263.347 398.18,257.014 399,250.5C 401.538,248.005 403.038,245.005 403.5,241.5C 410.325,231.64 419.825,226.973 432,227.5C 434.833,227.667 437.667,227.833 440.5,228C 449.774,230.792 456.774,236.292 461.5,244.5 Z"/></g>
<g><path style="opacity:0.706" fill="#907680" d="M 184.5,235.5 C 183.833,235.5 183.167,235.5 182.5,235.5C 173.702,229.465 164.035,227.965 153.5,231C 151.141,232.242 149.141,233.742 147.5,235.5C 143.492,237.846 140.159,240.846 137.5,244.5C 141.58,235.925 148.247,230.425 157.5,228C 163.859,227.169 170.193,227.336 176.5,228.5C 179.804,230.14 182.471,232.473 184.5,235.5 Z"/></g>
<g><path style="opacity:0.086" fill="#2e1b2e" d="M 606.5,228.5 C 599.395,229.014 592.395,230.347 585.5,232.5C 585.804,231.85 586.137,231.183 586.5,230.5C 593.06,228.867 599.727,228.2 606.5,228.5 Z"/></g>
<g><path style="opacity:0.604" fill="#917782" d="M 453.5,201.5 C 457.545,202.864 461.545,204.197 465.5,205.5C 465.33,206.822 465.663,207.989 466.5,209C 469.634,210.589 472.634,212.422 475.5,214.5C 477.467,217.248 479.8,219.581 482.5,221.5C 481.923,224.55 483.09,226.55 486,227.5C 488.992,234.475 492.159,241.142 495.5,247.5C 495.5,247.833 495.5,248.167 495.5,248.5C 494.86,258.039 494.027,267.706 493,277.5C 490.84,281.329 488.674,285.162 486.5,289C 485.767,290.766 485.433,292.599 485.5,294.5C 483.097,294.393 481.264,295.393 480,297.5C 478.208,300.391 476.708,303.391 475.5,306.5C 475.158,307.338 474.492,307.672 473.5,307.5C 471.179,308.477 468.846,309.477 466.5,310.5C 467.167,309.5 467.833,308.5 468.5,307.5C 473.975,304.236 477.809,299.569 480,293.5C 482.019,292.643 483.519,291.309 484.5,289.5C 492.094,276.632 494.594,262.632 492,247.5C 491.768,246.263 491.268,245.263 490.5,244.5C 488.629,235.973 484.629,228.64 478.5,222.5C 477.31,220.645 475.977,218.812 474.5,217C 468.284,212.611 461.951,208.444 455.5,204.5C 455.218,203.222 454.551,202.222 453.5,201.5 Z"/></g>
<g><path style="opacity:0.647" fill="#596470" d="M 885.5,225.5 C 887.487,228.801 889.487,232.134 891.5,235.5C 901.731,256.839 911.398,278.506 920.5,300.5C 920.752,304.327 922.085,307.66 924.5,310.5C 924.5,311.833 924.5,313.167 924.5,314.5C 911.258,285.008 898.258,255.341 885.5,225.5 Z"/></g>
<g><path style="opacity:0.902" fill="#8b83a2" d="M 863.5,219.5 C 862.173,226.166 859.507,232.166 855.5,237.5C 857.65,231.206 860.316,225.206 863.5,219.5 Z"/></g>
<g><path style="opacity:0.969" fill="#9e8bb7" d="M 840.5,226.5 C 839.721,229.545 838.387,232.211 836.5,234.5C 836.896,231.279 838.229,228.612 840.5,226.5 Z"/></g>
<g><path style="opacity:0.616" fill="#5b424e" d="M 182.5,235.5 C 183.167,235.5 183.833,235.5 184.5,235.5C 186.754,236.415 188.754,237.748 190.5,239.5C 191.957,241.628 192.957,243.962 193.5,246.5C 193.167,246.5 192.833,246.5 192.5,246.5C 189.195,242.859 185.862,239.192 182.5,235.5 Z"/></g>
<g><path style="opacity:0.294" fill="#412e3d" d="M 458.5,272.5 C 464.631,250.604 456.631,236.77 434.5,231C 431.833,230.333 429.167,230.333 426.5,231C 415.354,234.727 407.354,241.893 402.5,252.5C 402.5,251.167 402.5,249.833 402.5,248.5C 403.743,245.884 405.41,243.551 407.5,241.5C 408.429,240.311 408.762,238.978 408.5,237.5C 409.833,237.5 411.167,237.5 412.5,237.5C 412.281,236.325 412.614,235.325 413.5,234.5C 425.191,228.411 437.191,227.911 449.5,233C 461.094,242.951 464.927,255.451 461,270.5C 460.292,271.381 459.458,272.047 458.5,272.5 Z"/></g>
<g><path style="opacity:1" fill="#e9dee0" d="M 219.5,233.5 C 220.922,234.925 222.589,235.925 224.5,236.5C 224.5,238.833 224.5,241.167 224.5,243.5C 226.076,256.572 225.576,269.572 223,282.5C 222.617,283.056 222.117,283.389 221.5,283.5C 222.504,268.179 222.671,252.846 222,237.5C 220.519,236.529 219.685,235.196 219.5,233.5 Z"/></g>
<g><path style="opacity:0.145" fill="#321c2c" d="M 192.5,246.5 C 192.833,246.5 193.167,246.5 193.5,246.5C 193.557,247.609 193.89,248.609 194.5,249.5C 197.18,257.896 196.68,266.23 193,274.5C 190.932,276.396 189.099,278.396 187.5,280.5C 187.981,277.545 189.481,275.211 192,273.5C 193.548,268.761 194.715,263.927 195.5,259C 194.261,254.879 193.261,250.712 192.5,246.5 Z"/></g>
<g><path style="opacity:0.005" fill="#000004" d="M 402.5,252.5 C 403.446,257.134 403.446,261.801 402.5,266.5C 401.167,261.833 401.167,257.167 402.5,252.5 Z"/></g>
<g><path style="opacity:0.063" fill="#422c3c" d="M 585.5,232.5 C 580.636,235.187 576.469,238.853 573,243.5C 571.896,248.521 570.729,253.521 569.5,258.5C 570.819,263.107 571.819,267.773 572.5,272.5C 569.102,268.415 567.435,263.582 567.5,258C 569.74,252.402 571.074,246.569 571.5,240.5C 571.5,239.833 571.833,239.5 572.5,239.5C 574.584,237.923 576.584,236.09 578.5,234C 580.74,233.023 583.073,232.523 585.5,232.5 Z"/></g>
<g><path style="opacity:0.937" fill="#826fa1" d="M 1032.5,252.5 C 1048.99,251.503 1065.66,251.17 1082.5,251.5C 1082.83,265.344 1082.5,279.01 1081.5,292.5C 1081.5,279.167 1081.5,265.833 1081.5,252.5C 1065.17,252.5 1048.83,252.5 1032.5,252.5 Z"/></g>
<g><path style="opacity:0.133" fill="#314748" d="M 1082.5,249.5 C 1083.12,249.611 1083.62,249.944 1084,250.5C 1084.67,264.167 1084.67,277.833 1084,291.5C 1083.77,292.737 1083.27,293.737 1082.5,294.5C 1081.66,294.158 1081.33,293.492 1081.5,292.5C 1082.5,279.01 1082.83,265.344 1082.5,251.5C 1082.5,250.833 1082.5,250.167 1082.5,249.5 Z"/></g>
<g><path style="opacity:1" fill="#e1d4d6" d="M 403.5,241.5 C 403.038,245.005 401.538,248.005 399,250.5C 398.18,257.014 398.347,263.347 399.5,269.5C 400.167,269.833 400.833,270.167 401.5,270.5C 402.783,272.606 403.616,274.94 404,277.5C 406.148,278.977 407.482,280.977 408,283.5C 408.671,284.252 409.504,284.586 410.5,284.5C 411.167,285.5 411.833,286.5 412.5,287.5C 406.299,285.3 402.633,280.967 401.5,274.5C 399.412,272.572 397.912,270.239 397,267.5C 396.333,261.5 396.333,255.5 397,249.5C 397.667,248.167 398.667,247.167 400,246.5C 400.333,245.167 400.667,243.833 401,242.5C 401.671,241.748 402.504,241.414 403.5,241.5 Z"/></g>
<g><path style="opacity:0.663" fill="#34454f" d="M 918.5,245.5 C 921.54,248.914 923.54,252.914 924.5,257.5C 922.926,257.063 921.759,256.063 921,254.5C 920.151,251.479 919.317,248.479 918.5,245.5 Z"/></g>
<g><path style="opacity:1" fill="#d8c8cc" d="M 490.5,244.5 C 491.268,245.263 491.768,246.263 492,247.5C 494.594,262.632 492.094,276.632 484.5,289.5C 485.868,283.7 487.701,278.034 490,272.5C 490.5,263.173 490.666,253.839 490.5,244.5 Z"/></g>
<g><path style="opacity:0.659" fill="#525e6b" d="M 1082.5,249.5 C 1082.5,250.167 1082.5,250.833 1082.5,251.5C 1065.66,251.17 1048.99,251.503 1032.5,252.5C 1023.91,253.46 1018.58,258.126 1016.5,266.5C 1015.55,267.919 1015.22,269.585 1015.5,271.5C 1014.09,267.111 1014.59,262.778 1017,258.5C 1019.92,254.908 1023.42,252.075 1027.5,250C 1045.83,249.5 1064.16,249.333 1082.5,249.5 Z"/></g>
<g><path style="opacity:0.996" fill="#baa4aa" d="M 190.5,239.5 C 199.166,246.797 201.999,256.13 199,267.5C 198.768,268.737 198.268,269.737 197.5,270.5C 197.666,264.158 197.5,257.825 197,251.5C 196.292,250.619 195.458,249.953 194.5,249.5C 193.89,248.609 193.557,247.609 193.5,246.5C 192.957,243.962 191.957,241.628 190.5,239.5 Z"/></g>
<g><path style="opacity:0.231" fill="#5d4859" d="M 402.5,248.5 C 402.5,249.833 402.5,251.167 402.5,252.5C 401.167,257.167 401.167,261.833 402.5,266.5C 404.542,269.614 406.209,272.948 407.5,276.5C 405.5,274.5 403.5,272.5 401.5,270.5C 400.833,270.167 400.167,269.833 399.5,269.5C 399.334,263.491 399.501,257.491 400,251.5C 400.852,250.429 401.685,249.429 402.5,248.5 Z"/></g>
<g><path style="opacity:0.2" fill="#45313f" d="M 104.5,153.5 C 112.684,153.174 120.684,153.508 128.5,154.5C 120.826,154.334 113.159,154.5 105.5,155C 105,155.5 104.5,156 104,156.5C 103.169,194.669 103.336,232.669 104.5,270.5C 104.414,271.496 104.748,272.329 105.5,273C 113.345,273.822 121.011,273.656 128.5,272.5C 130.144,271.684 131.31,270.35 132,268.5C 132.172,263.798 132.672,259.132 133.5,254.5C 134.713,251.014 136.046,247.68 137.5,244.5C 140.159,240.846 143.492,237.846 147.5,235.5C 143.768,239.741 140.601,244.408 138,249.5C 135.925,256.592 134.925,263.925 135,271.5C 134.5,272 134,272.5 133.5,273C 128.442,274.116 123.275,274.616 118,274.5C 113.5,274.333 109,274.167 104.5,274C 104,273.5 103.5,273 103,272.5C 101.346,234.251 101.013,195.918 102,157.5C 102.662,156.016 103.496,154.683 104.5,153.5 Z"/></g>
<g><path style="opacity:0.59" fill="#8d6b75" d="M 224.5,243.5 C 225.15,243.804 225.817,244.137 226.5,244.5C 229.466,257.305 228.966,269.972 225,282.5C 224,284.167 222.667,285.5 221,286.5C 220.802,288.382 220.302,290.048 219.5,291.5C 219.107,288.487 219.774,285.82 221.5,283.5C 222.117,283.389 222.617,283.056 223,282.5C 225.576,269.572 226.076,256.572 224.5,243.5 Z"/></g>
<g><path style="opacity:0.102" fill="#2c1d2b" d="M 371.5,240.5 C 370.188,246.788 369.188,253.121 368.5,259.5C 369.093,266.261 370.093,272.928 371.5,279.5C 368.746,273.255 367.079,266.589 366.5,259.5C 367.194,252.776 368.861,246.443 371.5,240.5 Z"/></g>
<g><path style="opacity:1" fill="#d1bdc0" d="M 540.5,247.5 C 540.485,257.847 540.818,268.181 541.5,278.5C 539.661,271.586 538.661,264.419 538.5,257C 538.515,253.424 539.182,250.258 540.5,247.5 Z"/></g>
<g><path style="opacity:0.682" fill="#364d51" d="M 924.5,257.5 C 926.625,260.088 927.958,263.088 928.5,266.5C 925.329,264.481 923.996,261.481 924.5,257.5 Z"/></g>
<g><path style="opacity:0.102" fill="#3b2a34" d="M 653.5,264.5 C 646.198,263.336 638.864,262.836 631.5,263C 630.307,264.095 628.973,264.928 627.5,265.5C 628.925,261.696 631.758,260.029 636,260.5C 639.845,260.906 643.679,261.406 647.5,262C 649.852,262.24 651.852,263.073 653.5,264.5 Z"/></g>
<g><path style="opacity:0.471" fill="#8d707a" d="M 571.5,240.5 C 571.074,246.569 569.74,252.402 567.5,258C 567.435,263.582 569.102,268.415 572.5,272.5C 575.328,278.826 579.994,283.326 586.5,286C 588.134,286.494 589.801,286.66 591.5,286.5C 592.5,286.5 593.5,286.5 594.5,286.5C 598.646,287.647 602.98,287.814 607.5,287C 610.311,285.175 613.311,283.842 616.5,283C 618.464,281.549 619.797,279.716 620.5,277.5C 624.477,274.937 626.81,271.27 627.5,266.5C 627.5,266.167 627.5,265.833 627.5,265.5C 628.973,264.928 630.307,264.095 631.5,263C 638.864,262.836 646.198,263.336 653.5,264.5C 656.089,264.461 658.089,265.461 659.5,267.5C 660.035,272.312 659.035,276.645 656.5,280.5C 656.5,278.5 656.5,276.5 656.5,274.5C 656.785,272.712 656.452,271.045 655.5,269.5C 647.831,266.133 639.831,264.633 631.5,265C 630.286,267.351 629.452,269.851 629,272.5C 626.59,275.397 624.423,278.397 622.5,281.5C 617.309,284.506 611.976,287.339 606.5,290C 598,292.992 590.333,291.659 583.5,286C 581.122,285.489 578.788,284.822 576.5,284C 573.375,278.86 570.209,273.694 567,268.5C 566.5,262.175 566.334,255.842 566.5,249.5C 567.441,247.95 568.107,246.284 568.5,244.5C 569.143,242.924 570.143,241.59 571.5,240.5 Z"/></g>
<g><path style="opacity:0.95" fill="#8e85a6" d="M 849.5,251.5 C 848.793,255.248 847.793,258.914 846.5,262.5C 860.209,261.852 873.542,262.519 886.5,264.5C 872.579,263.518 858.579,263.185 844.5,263.5C 845.087,258.999 846.754,254.999 849.5,251.5 Z"/></g>
<g><path style="opacity:0.071" fill="#2e1a24" d="M 538.5,236.5 C 538.816,239.978 538.316,243.312 537,246.5C 536.333,254.167 536.333,261.833 537,269.5C 537.653,275.315 539.487,280.648 542.5,285.5C 542.5,286.167 542.5,286.833 542.5,287.5C 541.571,286.064 540.405,284.731 539,283.5C 534.801,271.511 533.468,259.177 535,246.5C 536.692,243.26 537.859,239.927 538.5,236.5 Z"/></g>
<g><path style="opacity:0.984" fill="#c9b5b9" d="M 190.5,239.5 C 188.754,237.748 186.754,236.415 184.5,235.5C 182.471,232.473 179.804,230.14 176.5,228.5C 170.193,227.336 163.859,227.169 157.5,228C 148.247,230.425 141.58,235.925 137.5,244.5C 136.046,247.68 134.713,251.014 133.5,254.5C 132.672,259.132 132.172,263.798 132,268.5C 131.31,270.35 130.144,271.684 128.5,272.5C 120.757,273.13 113.424,272.463 106.5,270.5C 114.352,270.825 122.018,270.492 129.5,269.5C 129.988,260.616 131.988,251.95 135.5,243.5C 139.282,238.546 143.282,233.712 147.5,229C 157.716,226.445 168.05,225.945 178.5,227.5C 184.21,229.877 188.21,233.877 190.5,239.5 Z"/></g>
<g><path style="opacity:0.055" fill="#311f2f" d="M 182.5,235.5 C 176.915,233.54 171.249,231.874 165.5,230.5C 159.507,232.161 153.507,233.828 147.5,235.5C 149.141,233.742 151.141,232.242 153.5,231C 164.035,227.965 173.702,229.465 182.5,235.5 Z"/></g>
<g><path style="opacity:0.49" fill="#a2a1b3" d="M 1016.5,266.5 C 1016.5,267.833 1016.5,269.167 1016.5,270.5C 1032.17,270.5 1047.83,270.5 1063.5,270.5C 1063.82,277.687 1063.49,284.687 1062.5,291.5C 1063.13,284.416 1062.46,277.75 1060.5,271.5C 1045.5,271.5 1030.5,271.5 1015.5,271.5C 1015.22,269.585 1015.55,267.919 1016.5,266.5 Z"/></g>
<g><path style="opacity:0.482" fill="#826873" d="M 104.5,270.5 C 105.167,270.5 105.833,270.5 106.5,270.5C 113.424,272.463 120.757,273.13 128.5,272.5C 121.011,273.656 113.345,273.822 105.5,273C 104.748,272.329 104.414,271.496 104.5,270.5 Z"/></g>
<g><path style="opacity:0.063" fill="#30242e" d="M 495.5,248.5 C 498.456,265.376 495.123,280.709 485.5,294.5C 485.433,292.599 485.767,290.766 486.5,289C 488.674,285.162 490.84,281.329 493,277.5C 494.027,267.706 494.86,258.039 495.5,248.5 Z"/></g>
<g><path style="opacity:0.031" fill="#25141c" d="M 627.5,266.5 C 626.81,271.27 624.477,274.937 620.5,277.5C 623.02,273.92 625.353,270.254 627.5,266.5 Z"/></g>
<g><path style="opacity:0.576" fill="#806673" d="M 375.5,233.5 C 374.267,242.601 372.267,251.434 369.5,260C 369.667,262.167 369.833,264.333 370,266.5C 371.385,267.551 372.385,268.884 373,270.5C 372.434,276.781 374.267,282.114 378.5,286.5C 378.687,288.564 379.187,290.564 380,292.5C 389.123,304.462 400.623,313.128 414.5,318.5C 411.833,318.5 409.167,318.5 406.5,318.5C 406.631,317.624 406.298,316.957 405.5,316.5C 400.158,314.835 395.492,312.168 391.5,308.5C 385.781,305.115 381.448,300.448 378.5,294.5C 377.191,289.479 374.858,285.145 371.5,281.5C 371.5,280.833 371.5,280.167 371.5,279.5C 370.093,272.928 369.093,266.261 368.5,259.5C 369.188,253.121 370.188,246.788 371.5,240.5C 372.567,238.036 373.9,235.703 375.5,233.5 Z"/></g>
<g><path style="opacity:0.188" fill="#30202d" d="M 572.5,272.5 C 575.165,274.64 577.498,277.14 579.5,280C 583.753,281.955 587.753,284.122 591.5,286.5C 589.801,286.66 588.134,286.494 586.5,286C 579.994,283.326 575.328,278.826 572.5,272.5 Z"/></g>
<g><path style="opacity:0.055" fill="#2c1625" d="M 659.5,267.5 C 660.809,268.624 661.475,270.124 661.5,272C 660.202,276.74 658.535,281.24 656.5,285.5C 656.5,283.833 656.5,282.167 656.5,280.5C 659.035,276.645 660.035,272.312 659.5,267.5 Z"/></g>
<g><path style="opacity:0.086" fill="#362132" d="M 458.5,272.5 C 458.5,273.833 458.5,275.167 458.5,276.5C 455.335,279.91 451.668,282.577 447.5,284.5C 451.876,281.126 455.542,277.126 458.5,272.5 Z"/></g>
<g><path style="opacity:0.914" fill="#917580" d="M 194.5,249.5 C 195.458,249.953 196.292,250.619 197,251.5C 197.5,257.825 197.666,264.158 197.5,270.5C 196.073,272.148 195.24,274.148 195,276.5C 192.957,278.208 191.29,280.208 190,282.5C 187.312,284.364 184.812,286.364 182.5,288.5C 182.167,288.5 181.833,288.5 181.5,288.5C 182.738,285.262 184.738,282.596 187.5,280.5C 189.099,278.396 190.932,276.396 193,274.5C 196.68,266.23 197.18,257.896 194.5,249.5 Z"/></g>
<g><path style="opacity:0.486" fill="#826774" d="M 401.5,270.5 C 403.5,272.5 405.5,274.5 407.5,276.5C 408.599,281.228 411.599,283.895 416.5,284.5C 417.391,285.11 418.391,285.443 419.5,285.5C 420.122,287.335 421.456,288.502 423.5,289C 428.787,290.262 434.12,290.596 439.5,290C 442.291,288.252 444.958,286.419 447.5,284.5C 451.668,282.577 455.335,279.91 458.5,276.5C 457.797,278.716 456.464,280.549 454.5,282C 451.244,284.777 447.911,287.277 444.5,289.5C 444.5,289.833 444.5,290.167 444.5,290.5C 437.528,291.508 430.528,291.675 423.5,291C 419.063,288.918 414.729,286.751 410.5,284.5C 409.504,284.586 408.671,284.252 408,283.5C 407.482,280.977 406.148,278.977 404,277.5C 403.616,274.94 402.783,272.606 401.5,270.5 Z"/></g>
<g><path style="opacity:0.102" fill="#342131" d="M 407.5,276.5 C 410.5,279.167 413.5,281.833 416.5,284.5C 411.599,283.895 408.599,281.228 407.5,276.5 Z"/></g>
<g><path style="opacity:0.859" fill="#7f8891" d="M 888.5,269.5 C 890.29,271.83 891.79,274.497 893,277.5C 893.495,279.473 893.662,281.473 893.5,283.5C 874.091,283.18 854.757,283.513 835.5,284.5C 835.5,284.167 835.5,283.833 835.5,283.5C 854.338,282.833 873.338,282.167 892.5,281.5C 890.291,277.78 888.957,273.78 888.5,269.5 Z"/></g>
<g><path style="opacity:0.043" fill="#281a25" d="M 620.5,277.5 C 619.797,279.716 618.464,281.549 616.5,283C 613.311,283.842 610.311,285.175 607.5,287C 602.98,287.814 598.646,287.647 594.5,286.5C 604.616,287.431 613.282,284.431 620.5,277.5 Z"/></g>
<g><path style="opacity:0.298" fill="#2d202c" d="M 371.5,281.5 C 374.858,285.145 377.191,289.479 378.5,294.5C 377.504,294.586 376.671,294.252 376,293.5C 374.739,289.329 373.239,285.329 371.5,281.5 Z"/></g>
<g><path style="opacity:0.969" fill="#bea9af" d="M 461.5,244.5 C 462.458,244.953 463.292,245.619 464,246.5C 466,255.167 466,263.833 464,272.5C 459.416,280.599 452.916,286.265 444.5,289.5C 447.911,287.277 451.244,284.777 454.5,282C 456.464,280.549 457.797,278.716 458.5,276.5C 460.934,275.229 462.434,273.229 463,270.5C 463.667,262.833 463.667,255.167 463,247.5C 461.961,246.756 461.461,245.756 461.5,244.5 Z"/></g>
<g><path style="opacity:0.667" fill="#aa9198" d="M 656.5,274.5 C 656.5,276.5 656.5,278.5 656.5,280.5C 656.5,282.167 656.5,283.833 656.5,285.5C 654.956,285.703 653.622,286.37 652.5,287.5C 650.687,290.645 649.354,293.978 648.5,297.5C 647.292,298.234 645.959,298.567 644.5,298.5C 643.532,303.293 640.532,305.793 635.5,306C 633.461,308.374 631.128,310.374 628.5,312C 615.154,317.8 601.154,320.133 586.5,319C 583.69,318.218 581.023,317.384 578.5,316.5C 591.603,318.295 604.603,317.795 617.5,315C 620.994,311.276 625.327,309.276 630.5,309C 631.833,307.667 633.167,306.333 634.5,305C 639.037,304.463 641.537,301.963 642,297.5C 644.698,296.302 646.531,294.302 647.5,291.5C 648.325,290.614 649.325,290.281 650.5,290.5C 650.174,287.393 651.341,285.06 654,283.5C 654.333,280.833 654.667,278.167 655,275.5C 655.383,274.944 655.883,274.611 656.5,274.5 Z"/></g>
<g><path style="opacity:0.005" fill="#11090f" d="M 179.5,286.5 C 176.916,288.472 173.916,289.472 170.5,289.5C 167.833,289.5 165.167,289.5 162.5,289.5C 165.401,286.726 168.401,286.392 171.5,288.5C 174.022,287.238 176.689,286.571 179.5,286.5 Z"/></g>
<g><path style="opacity:0.145" fill="#3c2734" d="M 215.5,219.5 C 217.836,221.004 219.669,223.004 221,225.5C 221.721,229.342 223.387,232.676 226,235.5C 230.667,251.833 230.667,268.167 226,284.5C 223.246,288.079 221.246,292.079 220,296.5C 218.296,298.373 216.463,300.04 214.5,301.5C 215.02,298.807 216.52,296.807 219,295.5C 219.49,294.207 219.657,292.873 219.5,291.5C 220.302,290.048 220.802,288.382 221,286.5C 222.667,285.5 224,284.167 225,282.5C 228.966,269.972 229.466,257.305 226.5,244.5C 225.817,244.137 225.15,243.804 224.5,243.5C 224.5,241.167 224.5,238.833 224.5,236.5C 222.066,230.529 219.066,224.862 215.5,219.5 Z"/></g>
<g><path style="opacity:0.051" fill="#382737" d="M 162.5,289.5 C 165.167,289.5 167.833,289.5 170.5,289.5C 163.687,290.491 156.687,290.825 149.5,290.5C 150.768,288.613 152.601,287.613 155,287.5C 157.544,288.071 160.044,288.738 162.5,289.5 Z"/></g>
<g><path style="opacity:0.149" fill="#392735" d="M 447.5,284.5 C 444.958,286.419 442.291,288.252 439.5,290C 434.12,290.596 428.787,290.262 423.5,289C 421.456,288.502 420.122,287.335 419.5,285.5C 428.941,289.604 438.275,289.271 447.5,284.5 Z"/></g>
<g><path style="opacity:0.996" fill="#dac9cd" d="M 221.5,283.5 C 219.774,285.82 219.107,288.487 219.5,291.5C 218.504,291.414 217.671,291.748 217,292.5C 215.694,295.621 213.86,298.287 211.5,300.5C 214.383,295.402 216.716,290.068 218.5,284.5C 219.417,283.873 220.417,283.539 221.5,283.5 Z"/></g>
<g><path style="opacity:0.837" fill="#b9a4ab" d="M 410.5,284.5 C 414.729,286.751 419.063,288.918 423.5,291C 430.528,291.675 437.528,291.508 444.5,290.5C 443.737,291.268 442.737,291.768 441.5,292C 431.153,293.848 421.486,292.348 412.5,287.5C 411.833,286.5 411.167,285.5 410.5,284.5 Z"/></g>
<g><path style="opacity:0.043" fill="#646b79" d="M 835.5,283.5 C 835.5,283.833 835.5,284.167 835.5,284.5C 835.328,285.492 835.662,286.158 836.5,286.5C 834.893,291.652 832.893,296.652 830.5,301.5C 828.621,302.897 826.954,304.563 825.5,306.5C 828.474,298.546 831.807,290.879 835.5,283.5 Z"/></g>
<g><path style="opacity:1" fill="#e9dee0" d="M 566.5,249.5 C 566.334,255.842 566.5,262.175 567,268.5C 570.209,273.694 573.375,278.86 576.5,284C 578.788,284.822 581.122,285.489 583.5,286C 590.333,291.659 598,292.992 606.5,290C 611.976,287.339 617.309,284.506 622.5,281.5C 622.5,282.5 622.5,283.5 622.5,284.5C 620.94,284.519 619.44,284.852 618,285.5C 614.626,288.211 611.126,290.711 607.5,293C 601.472,293.83 595.472,293.664 589.5,292.5C 584.536,290.018 579.536,287.518 574.5,285C 572.926,283.174 572.093,281.007 572,278.5C 570.846,277.257 569.512,276.257 568,275.5C 565.37,266.896 564.87,258.229 566.5,249.5 Z"/></g>
<g><path style="opacity:0.141" fill="#453240" d="M 656.5,285.5 C 654.916,288.391 653.416,291.391 652,294.5C 650.961,295.71 649.794,296.71 648.5,297.5C 649.354,293.978 650.687,290.645 652.5,287.5C 653.622,286.37 654.956,285.703 656.5,285.5 Z"/></g>
<g><path style="opacity:0.941" fill="#a196b7" d="M 812.5,289.5 C 811.674,292.485 810.341,295.151 808.5,297.5C 808.794,294.246 810.127,291.579 812.5,289.5 Z"/></g>
<g><path style="opacity:0.945" fill="#9188aa" d="M 980.5,206.5 C 980.5,207.167 980.5,207.833 980.5,208.5C 980.017,236.922 980.517,265.255 982,293.5C 982.5,294 983,294.5 983.5,295C 1008.83,295.667 1034.17,295.667 1059.5,295C 1060.04,294.283 1060.71,293.783 1061.5,293.5C 1061.59,294.496 1061.25,295.329 1060.5,296C 1034.5,296.667 1008.5,296.667 982.5,296C 982,295.5 981.5,295 981,294.5C 979.848,279.59 979.348,264.59 979.5,249.5C 979.5,234.996 979.833,220.663 980.5,206.5 Z"/></g>
<g><path style="opacity:0.761" fill="#988fae" d="M 1081.5,292.5 C 1081.33,293.492 1081.66,294.158 1082.5,294.5C 1082.5,294.833 1082.5,295.167 1082.5,295.5C 1081.01,298.021 1079.34,300.354 1077.5,302.5C 1078.66,299.011 1079.99,295.678 1081.5,292.5 Z"/></g>
<g><path style="opacity:0.243" fill="#493640" d="M 485.5,294.5 C 483.267,299.401 479.934,303.401 475.5,306.5C 476.708,303.391 478.208,300.391 480,297.5C 481.264,295.393 483.097,294.393 485.5,294.5 Z"/></g>
<g><path style="opacity:0.384" fill="#644c59" d="M 219.5,291.5 C 219.657,292.873 219.49,294.207 219,295.5C 216.52,296.807 215.02,298.807 214.5,301.5C 213.167,305.5 210.5,308.167 206.5,309.5C 206.351,308.448 206.517,307.448 207,306.5C 209.127,304.886 210.627,302.886 211.5,300.5C 213.86,298.287 215.694,295.621 217,292.5C 217.671,291.748 218.504,291.414 219.5,291.5 Z"/></g>
<g><path style="opacity:0.871" fill="#9986b2" d="M 920.5,300.5 C 922.915,303.34 924.248,306.673 924.5,310.5C 922.085,307.66 920.752,304.327 920.5,300.5 Z"/></g>
<g><path style="opacity:0.796" fill="#ab9197" d="M 211.5,300.5 C 210.627,302.886 209.127,304.886 207,306.5C 206.517,307.448 206.351,308.448 206.5,309.5C 204.328,310.801 201.995,311.801 199.5,312.5C 201.438,310.198 203.105,307.698 204.5,305C 207.233,304.096 209.567,302.596 211.5,300.5 Z"/></g>
<g><path style="opacity:0.237" fill="#36494d" d="M 830.5,301.5 C 829.206,306.91 826.872,311.743 823.5,316C 815.988,316.822 808.655,316.655 801.5,315.5C 808.687,315.825 815.687,315.491 822.5,314.5C 822.5,314.167 822.5,313.833 822.5,313.5C 823.11,312.609 823.443,311.609 823.5,310.5C 824.674,309.486 825.34,308.153 825.5,306.5C 826.954,304.563 828.621,302.897 830.5,301.5 Z"/></g>
<g><path style="opacity:0.929" fill="#998ab1" d="M 1077.5,302.5 C 1076.91,306.089 1074.91,308.422 1071.5,309.5C 1073.53,307.142 1075.53,304.808 1077.5,302.5 Z"/></g>
<g><path style="opacity:0.988" fill="#b183d3" d="M 825.5,306.5 C 825.34,308.153 824.674,309.486 823.5,310.5C 823.229,308.62 823.896,307.287 825.5,306.5 Z"/></g>
<g><path style="opacity:0.435" fill="#543d4b" d="M 542.5,285.5 C 545.007,288.307 547.341,291.307 549.5,294.5C 549.5,296.5 550.5,297.5 552.5,297.5C 554.93,302.431 558.596,306.265 563.5,309C 568.121,312.345 573.121,314.845 578.5,316.5C 581.023,317.384 583.69,318.218 586.5,319C 601.154,320.133 615.154,317.8 628.5,312C 631.128,310.374 633.461,308.374 635.5,306C 640.532,305.793 643.532,303.293 644.5,298.5C 645.959,298.567 647.292,298.234 648.5,297.5C 646.978,300.029 645.311,302.529 643.5,305C 638.992,307.753 634.659,310.753 630.5,314C 626.595,315.052 622.929,316.552 619.5,318.5C 610.004,320.138 600.338,321.138 590.5,321.5C 586.267,320.251 581.934,319.418 577.5,319C 565.848,313.925 555.681,306.759 547,297.5C 544.78,294.46 543.28,291.127 542.5,287.5C 542.5,286.833 542.5,286.167 542.5,285.5 Z"/></g>
<g><path style="opacity:0.776" fill="#b29aa1" d="M 552.5,297.5 C 559.817,303.827 567.817,309.161 576.5,313.5C 577.425,314.357 578.092,315.357 578.5,316.5C 573.121,314.845 568.121,312.345 563.5,309C 558.596,306.265 554.93,302.431 552.5,297.5 Z"/></g>
<g><path style="opacity:0.137" fill="#30202c" d="M 148.5,294.5 C 148.66,296.199 148.494,297.866 148,299.5C 144.96,303.626 143.127,308.293 142.5,313.5C 142.76,316.754 144.427,318.754 147.5,319.5C 143.135,320.007 140.802,318.174 140.5,314C 142.044,306.929 144.711,300.429 148.5,294.5 Z"/></g>
<g><path style="opacity:0.059" fill="#241526" d="M 391.5,308.5 C 395.492,312.168 400.158,314.835 405.5,316.5C 406.298,316.957 406.631,317.624 406.5,318.5C 400.321,316.912 395.321,313.579 391.5,308.5 Z"/></g>
<g><path style="opacity:1" fill="#cab7bb" d="M 181.5,288.5 C 181.833,288.5 182.167,288.5 182.5,288.5C 181.953,291.212 180.287,292.712 177.5,293C 169.147,293.168 160.813,293.668 152.5,294.5C 150.639,301.02 148.306,307.354 145.5,313.5C 145.608,314.442 145.941,315.275 146.5,316C 147.737,316.232 148.737,316.732 149.5,317.5C 146.136,318.127 144.136,316.794 143.5,313.5C 144.819,309.528 146.652,305.862 149,302.5C 149.333,299.5 149.667,296.5 150,293.5C 150.5,293 151,292.5 151.5,292C 159.5,291.667 167.5,291.333 175.5,291C 177.217,289.441 179.217,288.608 181.5,288.5 Z"/></g>
<g><path style="opacity:0.424" fill="#442e3d" d="M 206.5,309.5 C 203.012,313.742 198.679,316.742 193.5,318.5C 194.598,317.603 194.598,316.77 193.5,316C 195.973,315.78 197.64,314.614 198.5,312.5C 198.833,312.5 199.167,312.5 199.5,312.5C 201.995,311.801 204.328,310.801 206.5,309.5 Z"/></g>
<g><path style="opacity:0.925" fill="#7f6370" d="M 187.5,280.5 C 184.738,282.596 182.738,285.262 181.5,288.5C 179.217,288.608 177.217,289.441 175.5,291C 167.5,291.333 159.5,291.667 151.5,292C 151,292.5 150.5,293 150,293.5C 149.667,296.5 149.333,299.5 149,302.5C 146.652,305.862 144.819,309.528 143.5,313.5C 144.136,316.794 146.136,318.127 149.5,317.5C 149.918,318.222 150.584,318.722 151.5,319C 161.144,320.62 170.811,320.787 180.5,319.5C 181.602,318.824 182.602,318.158 183.5,317.5C 185.527,317.662 187.527,317.495 189.5,317C 191.973,314.453 194.973,312.953 198.5,312.5C 197.64,314.614 195.973,315.78 193.5,316C 194.598,316.77 194.598,317.603 193.5,318.5C 188.302,318.731 183.302,319.897 178.5,322C 167.971,323.125 157.638,322.291 147.5,319.5C 144.427,318.754 142.76,316.754 142.5,313.5C 143.127,308.293 144.96,303.626 148,299.5C 148.494,297.866 148.66,296.199 148.5,294.5C 148.232,292.901 148.566,291.568 149.5,290.5C 156.687,290.825 163.687,290.491 170.5,289.5C 173.916,289.472 176.916,288.472 179.5,286.5C 181.571,283.769 184.238,281.769 187.5,280.5 Z"/></g>
<g><path style="opacity:0.333" fill="#3f2f3d" d="M 473.5,307.5 C 469.251,312.634 463.918,316.3 457.5,318.5C 458.248,316.668 459.248,315.001 460.5,313.5C 462.167,313.5 463.833,313.5 465.5,313.5C 465.263,312.209 465.596,311.209 466.5,310.5C 468.846,309.477 471.179,308.477 473.5,307.5 Z"/></g>
<g><path style="opacity:0.968" fill="#a1a4b2" d="M 802.5,311.5 C 808.75,313.459 815.416,314.126 822.5,313.5C 822.5,313.833 822.5,314.167 822.5,314.5C 815.5,314.5 808.5,314.5 801.5,314.5C 801.263,313.209 801.596,312.209 802.5,311.5 Z"/></g>
<g><path style="opacity:0.969" fill="#8f92a2" d="M 940.5,298.5 C 941.79,300.792 943.457,302.792 945.5,304.5C 945.833,307.833 946.167,311.167 946.5,314.5C 939.167,314.5 931.833,314.5 924.5,314.5C 924.5,313.167 924.5,311.833 924.5,310.5C 924.833,310.5 925.167,310.5 925.5,310.5C 925.5,311.5 925.5,312.5 925.5,313.5C 932.354,313.824 939.021,313.491 945.5,312.5C 943.836,307.837 942.169,303.17 940.5,298.5 Z"/></g>
<g><path style="opacity:0.996" fill="#bf75ed" d="M 925.5,310.5 C 931.882,312.399 938.549,313.066 945.5,312.5C 939.021,313.491 932.354,313.824 925.5,313.5C 925.5,312.5 925.5,311.5 925.5,310.5 Z"/></g>
<g><path style="opacity:0.969" fill="#9fa3ae" d="M 1071.5,309.5 C 1069.78,312.542 1067.11,314.375 1063.5,315C 1034.47,315.809 1005.47,315.642 976.5,314.5C 976.167,313.833 975.833,313.167 975.5,312.5C 977.179,312.892 978.846,313.392 980.5,314C 1007.83,314.667 1035.17,314.667 1062.5,314C 1065.55,312.473 1068.55,310.973 1071.5,309.5 Z"/></g>
<g><path style="opacity:0.49" fill="#394e51" d="M 945.5,304.5 C 948.46,307.87 949.46,311.704 948.5,316C 940.833,316.667 933.167,316.667 925.5,316C 924.944,315.617 924.611,315.117 924.5,314.5C 931.833,314.5 939.167,314.5 946.5,314.5C 946.167,311.167 945.833,307.833 945.5,304.5 Z"/></g>
<g><path style="opacity:0.859" fill="#45595d" d="M 1082.5,295.5 C 1080.35,307.813 1073.02,314.979 1060.5,317C 1034.5,317.667 1008.5,317.667 982.5,317C 980.148,316.76 978.148,315.927 976.5,314.5C 1005.47,315.642 1034.47,315.809 1063.5,315C 1067.11,314.375 1069.78,312.542 1071.5,309.5C 1074.91,308.422 1076.91,306.089 1077.5,302.5C 1079.34,300.354 1081.01,298.021 1082.5,295.5 Z"/></g>
<g><path style="opacity:0.984" fill="#c7b2b6" d="M 468.5,307.5 C 467.833,308.5 467.167,309.5 466.5,310.5C 465.596,311.209 465.263,312.209 465.5,313.5C 463.833,313.5 462.167,313.5 460.5,313.5C 458.456,314.031 456.789,315.198 455.5,317C 451.082,317.208 446.749,317.874 442.5,319C 435.654,319.821 428.987,319.654 422.5,318.5C 432.955,318.906 443.288,318.073 453.5,316C 458.337,312.887 463.337,310.054 468.5,307.5 Z"/></g>
<g><path style="opacity:0.976" fill="#c7afb3" d="M 149.5,317.5 C 155.355,318.013 161.189,318.679 167,319.5C 172.565,319.286 178.065,318.62 183.5,317.5C 182.602,318.158 181.602,318.824 180.5,319.5C 170.811,320.787 161.144,320.62 151.5,319C 150.584,318.722 149.918,318.222 149.5,317.5 Z"/></g>
<g><path style="opacity:0.518" fill="#826571" d="M 460.5,313.5 C 459.248,315.001 458.248,316.668 457.5,318.5C 456.292,319.234 454.959,319.567 453.5,319.5C 442.583,321.373 431.583,321.873 420.5,321C 418.026,320.963 416.026,320.13 414.5,318.5C 417.167,318.5 419.833,318.5 422.5,318.5C 428.987,319.654 435.654,319.821 442.5,319C 446.749,317.874 451.082,317.208 455.5,317C 456.789,315.198 458.456,314.031 460.5,313.5 Z"/></g>
<g><path style="opacity:0.098" fill="#2b1c28" d="M 406.5,318.5 C 409.167,318.5 411.833,318.5 414.5,318.5C 416.026,320.13 418.026,320.963 420.5,321C 431.583,321.873 442.583,321.373 453.5,319.5C 437.716,324.892 422.049,324.559 406.5,318.5 Z"/></g>
<g><path style="opacity:0.098" fill="#2a1a25" d="M 619.5,318.5 C 614.891,319.339 610.224,320.506 605.5,322C 600.316,322.816 595.316,322.65 590.5,321.5C 600.338,321.138 610.004,320.138 619.5,318.5 Z"/></g>
<g><path style="opacity:0.051" fill="#1f1420" d="M 193.5,318.5 C 179.642,324.238 165.308,325.405 150.5,322C 149.058,321.623 148.058,320.79 147.5,319.5C 157.638,322.291 167.971,323.125 178.5,322C 183.302,319.897 188.302,318.731 193.5,318.5 Z"/></g>
</svg>
