<?xml version="1.0" encoding="UTF-8"?>
<!DOCTYPE svg PUBLIC "-//W3C//DTD SVG 1.1//EN" "http://www.w3.org/Graphics/SVG/1.1/DTD/svg11.dtd">
<svg xmlns="http://www.w3.org/2000/svg" version="1.1" width="137px" height="211px" style="shape-rendering:geometricPrecision; text-rendering:geometricPrecision; image-rendering:optimizeQuality; fill-rule:evenodd; clip-rule:evenodd" xmlns:xlink="http://www.w3.org/1999/xlink">
<g><path style="opacity:0.999" fill="#bf57fb" d="M 105.5,8.5 C 107.649,9.73623 109.982,10.7362 112.5,11.5C 116.106,14.0241 118.772,17.3574 120.5,21.5C 121.051,24.8067 121.384,28.1401 121.5,31.5C 119.479,41.543 114.479,49.8763 106.5,56.5C 104.625,55.4597 103.292,53.9597 102.5,52C 105.783,47.9407 108.949,43.774 112,39.5C 117.809,20.6389 110.976,13.1389 91.5,17C 88.3333,20.1667 85.1667,23.3333 82,26.5C 79.4246,29.7262 77.9246,33.3929 77.5,37.5C 75.7234,40.5046 74.7234,43.8379 74.5,47.5C 72.9177,50.8756 72.2511,54.5422 72.5,58.5C 71.4078,67.6681 70.9078,77.0014 71,86.5C 75.2883,88.2703 78.955,90.937 82,94.5C 83.9889,98.253 84.8222,102.253 84.5,106.5C 79.8169,118.161 71.4836,121.827 59.5,117.5C 55.6105,114.385 53.2771,110.385 52.5,105.5C 52.2705,100.995 52.9372,96.6613 54.5,92.5C 57.3649,90.2387 60.3649,88.2387 63.5,86.5C 63.6637,71.4368 65.3303,56.4368 68.5,41.5C 69.1667,38.5 69.8333,35.5 70.5,32.5C 72.341,30.1515 73.6743,27.4848 74.5,24.5C 78.1938,20.1396 82.1938,16.1396 86.5,12.5C 88.9674,12.2451 90.9674,11.2451 92.5,9.5C 94.8476,8.04832 97.5143,7.38165 100.5,7.5C 102.369,7.50681 104.036,7.84014 105.5,8.5 Z"/></g>
<g><path style="opacity:0.843" fill="#52606a" d="M 77.5,42.5 C 77.5,40.8333 77.5,39.1667 77.5,37.5C 77.9246,33.3929 79.4246,29.7262 82,26.5C 85.1667,23.3333 88.3333,20.1667 91.5,17C 110.976,13.1389 117.809,20.6389 112,39.5C 108.949,43.774 105.783,47.9407 102.5,52C 103.292,53.9597 104.625,55.4597 106.5,56.5C 114.479,49.8763 119.479,41.543 121.5,31.5C 122.865,28.041 122.531,24.7076 120.5,21.5C 118.772,17.3574 116.106,14.0241 112.5,11.5C 112.423,10.2502 111.756,9.41691 110.5,9C 108.866,8.50649 107.199,8.33982 105.5,8.5C 104.036,7.84014 102.369,7.50681 100.5,7.5C 97.5143,7.38165 94.8476,8.04832 92.5,9.5C 90.0326,9.75488 88.0326,10.7549 86.5,12.5C 82.1938,16.1396 78.1938,20.1396 74.5,24.5C 72.127,26.5792 70.7936,29.2459 70.5,32.5C 69.8333,35.5 69.1667,38.5 68.5,41.5C 67.5902,43.0188 66.7568,44.6854 66,46.5C 63.8242,59.7375 62.9909,73.0708 63.5,86.5C 60.3649,88.2387 57.3649,90.2387 54.5,92.5C 51.5003,96.5081 50.8336,100.841 52.5,105.5C 53.2771,110.385 55.6105,114.385 59.5,117.5C 71.4836,121.827 79.8169,118.161 84.5,106.5C 85.4575,102.33 85.4575,97.9972 84.5,93.5C 89.8824,104.21 87.5491,113.043 77.5,120C 58.1665,124.61 48.9998,117.11 50,97.5C 51.3509,90.9846 55.1842,86.9846 61.5,85.5C 61.5635,70.0174 63.0635,54.6841 66,39.5C 69.5272,22.647 79.3606,11.4804 95.5,6C 112.744,4.24606 122.744,11.9127 125.5,29C 123.747,41.1683 118.08,51.1683 108.5,59C 107.5,59.6667 106.5,59.6667 105.5,59C 103.5,57.6667 101.5,56.3333 99.5,55C 98.4464,53.6124 98.2797,52.1124 99,50.5C 105.849,44.6585 110.682,37.4918 113.5,29C 109.908,18.8667 103.241,15.8667 93.5,20C 90.3699,22.128 87.5366,24.628 85,27.5C 82.3911,32.525 79.8911,37.525 77.5,42.5 Z"/></g>
<g><path style="opacity:0.986" fill="#b87fde" d="M 120.5,21.5 C 122.531,24.7076 122.865,28.041 121.5,31.5C 121.384,28.1401 121.051,24.8067 120.5,21.5 Z"/></g>
<g><path style="opacity:0.918" fill="#9a94ae" d="M 74.5,24.5 C 73.6743,27.4848 72.341,30.1515 70.5,32.5C 70.7936,29.2459 72.127,26.5792 74.5,24.5 Z"/></g>
<g><path style="opacity:0.973" fill="#ab78d1" d="M 92.5,9.5 C 90.9674,11.2451 88.9674,12.2451 86.5,12.5C 88.0326,10.7549 90.0326,9.75488 92.5,9.5 Z"/></g>
<g><path style="opacity:0.839" fill="#8d78ab" d="M 105.5,8.5 C 107.199,8.33982 108.866,8.50649 110.5,9C 111.756,9.41691 112.423,10.2502 112.5,11.5C 109.982,10.7362 107.649,9.73623 105.5,8.5 Z"/></g>
<g><path style="opacity:0.761" fill="#87879b" d="M 77.5,37.5 C 77.5,39.1667 77.5,40.8333 77.5,42.5C 77.5,43.1667 77.5,43.8333 77.5,44.5C 76.1001,45.0998 75.1001,46.0998 74.5,47.5C 74.7234,43.8379 75.7234,40.5046 77.5,37.5 Z"/></g>
<g><path style="opacity:0.424" fill="#4c5e63" d="M 77.5,44.5 C 77.0371,47.4824 76.7038,50.4824 76.5,53.5C 75.0458,60.4379 74.0458,67.4379 73.5,74.5C 72.5119,69.3595 72.1786,64.0262 72.5,58.5C 73.6874,55.0542 74.3541,51.3875 74.5,47.5C 75.1001,46.0998 76.1001,45.0998 77.5,44.5 Z"/></g>
<g><path style="opacity:0.678" fill="#5b6373" d="M 123.5,82.5 C 123.5,83.1667 123.5,83.8333 123.5,84.5C 123.167,84.5 122.833,84.5 122.5,84.5C 118.476,81.4686 114.476,78.4686 110.5,75.5C 110.027,74.0937 109.027,73.427 107.5,73.5C 107.027,72.0937 106.027,71.427 104.5,71.5C 103.272,68.2702 100.939,66.6035 97.5,66.5C 96.4613,64.4689 94.7946,63.1355 92.5,62.5C 88.3171,60.9125 84.6505,58.5792 81.5,55.5C 80.791,54.596 79.791,54.2627 78.5,54.5C 78.5,57.1667 78.5,59.8333 78.5,62.5C 78.1734,67.2137 78.5067,71.8804 79.5,76.5C 84.5355,79.885 89.5355,83.2183 94.5,86.5C 94.9731,87.9063 95.9731,88.573 97.5,88.5C 97.9731,89.9063 98.9731,90.573 100.5,90.5C 103.688,93.0296 106.855,95.6962 110,98.5C 110.5,106.827 110.666,115.16 110.5,123.5C 116.5,123.5 122.5,123.5 128.5,123.5C 125.742,124.818 122.576,125.485 119,125.5C 115.582,125.481 112.249,125.147 109,124.5C 108.667,115.833 108.333,107.167 108,98.5C 107.617,97.944 107.117,97.6107 106.5,97.5C 95.9388,91.111 85.7721,84.111 76,76.5C 75.5229,68.8219 75.6895,61.1552 76.5,53.5C 78.623,51.0787 80.9564,50.9121 83.5,53C 94.1282,60.3303 104.795,67.6636 115.5,75C 118.666,77.0001 121.332,79.5001 123.5,82.5 Z"/></g>
<g><path style="opacity:0.98" fill="#a78ec1" d="M 68.5,41.5 C 65.3303,56.4368 63.6637,71.4368 63.5,86.5C 62.9909,73.0708 63.8242,59.7375 66,46.5C 66.7568,44.6854 67.5902,43.0188 68.5,41.5 Z"/></g>
<g><path style="opacity:0.941" fill="#b3a1c9" d="M 74.5,47.5 C 74.3541,51.3875 73.6874,55.0542 72.5,58.5C 72.2511,54.5422 72.9177,50.8756 74.5,47.5 Z"/></g>
<g><path style="opacity:1" fill="#bf54fd" d="M 58.5,59.5 C 57.4825,64.9845 56.8158,70.6511 56.5,76.5C 50.8333,80.5 45.1667,84.5 39.5,88.5C 37.9731,88.427 36.9731,89.0937 36.5,90.5C 34.2228,91.4486 32.2228,92.7819 30.5,94.5C 29.8333,95.8333 28.8333,96.8333 27.5,97.5C 26.8334,111.663 26.5001,125.996 26.5,140.5C 26.3484,155.59 26.8484,170.59 28,185.5C 28.5,186 29,186.5 29.5,187C 55.5,187.667 81.5,187.667 107.5,187C 108.252,186.329 108.586,185.496 108.5,184.5C 109.338,184.158 109.672,183.492 109.5,182.5C 110.491,175.687 110.825,168.687 110.5,161.5C 94.8333,161.5 79.1667,161.5 63.5,161.5C 63.5,160.167 63.5,158.833 63.5,157.5C 65.0086,150.783 69.0086,146.45 75.5,144.5C 93.139,143.555 110.806,143.222 128.5,143.5C 128.5,156.833 128.5,170.167 128.5,183.5C 126.991,186.678 125.658,190.011 124.5,193.5C 120.452,198.691 115.452,202.691 109.5,205.5C 82.1646,205.667 54.8313,205.5 27.5,205C 16.6918,201.697 10.3585,194.53 8.5,183.5C 8.20614,153.479 8.53947,123.479 9.5,93.5C 11.3622,91.1089 12.6955,88.4422 13.5,85.5C 15.5,84.1667 17.1667,82.5 18.5,80.5C 21.803,79.8486 24.4697,78.182 26.5,75.5C 28.0269,75.573 29.0269,74.9063 29.5,73.5C 29.9731,72.0937 30.9731,71.427 32.5,71.5C 35.5331,69.984 38.1997,67.984 40.5,65.5C 43.5178,63.4742 46.5178,61.4742 49.5,59.5C 51.0269,59.573 52.0269,58.9063 52.5,57.5C 54.3146,56.3702 56.3146,55.7036 58.5,55.5C 58.5,56.8333 58.5,58.1667 58.5,59.5 Z"/></g>
<g><path style="opacity:1" fill="#bf55fd" d="M 81.5,55.5 C 84.6505,58.5792 88.3171,60.9125 92.5,62.5C 93.2702,64.9354 94.9368,66.2687 97.5,66.5C 99.2964,68.9 101.63,70.5667 104.5,71.5C 104.973,72.9063 105.973,73.573 107.5,73.5C 107.973,74.9063 108.973,75.573 110.5,75.5C 114.476,78.4686 118.476,81.4686 122.5,84.5C 124.199,87.8987 125.866,91.232 127.5,94.5C 128.421,104.127 128.755,113.794 128.5,123.5C 122.5,123.5 116.5,123.5 110.5,123.5C 110.666,115.16 110.5,106.827 110,98.5C 106.855,95.6962 103.688,93.0296 100.5,90.5C 100.027,89.0937 99.0269,88.427 97.5,88.5C 97.0269,87.0937 96.0269,86.427 94.5,86.5C 89.5355,83.2183 84.5355,79.885 79.5,76.5C 78.5067,71.8804 78.1734,67.2137 78.5,62.5C 78.9174,59.8411 79.9174,57.5078 81.5,55.5 Z"/></g>
<g><path style="opacity:0.976" fill="#a87ccc" d="M 81.5,55.5 C 79.9174,57.5078 78.9174,59.8411 78.5,62.5C 78.5,59.8333 78.5,57.1667 78.5,54.5C 79.791,54.2627 80.791,54.596 81.5,55.5 Z"/></g>
<g><path style="opacity:0.784" fill="#8b7fa4" d="M 92.5,62.5 C 94.7946,63.1355 96.4613,64.4689 97.5,66.5C 94.9368,66.2687 93.2702,64.9354 92.5,62.5 Z"/></g>
<g><path style="opacity:0.722" fill="#807a98" d="M 97.5,66.5 C 100.939,66.6035 103.272,68.2702 104.5,71.5C 101.63,70.5667 99.2964,68.9 97.5,66.5 Z"/></g>
<g><path style="opacity:0.647" fill="#516168" d="M 29.5,99.5 C 28.5021,126.995 28.1687,154.662 28.5,182.5C 27.502,154.338 27.1687,126.005 27.5,97.5C 28.8333,96.8333 29.8333,95.8333 30.5,94.5C 33.2921,94.3775 35.2921,93.0442 36.5,90.5C 38.0269,90.573 39.0269,89.9063 39.5,88.5C 45.1667,84.5 50.8333,80.5 56.5,76.5C 57.29,75.3915 57.79,74.0581 58,72.5C 58.499,68.1794 58.6657,63.8461 58.5,59.5C 59.4511,58.0813 59.7845,56.4147 59.5,54.5C 56.3695,53.9078 54.0361,54.9078 52.5,57.5C 50.9731,57.427 49.9731,58.0937 49.5,59.5C 46.5178,61.4742 43.5178,63.4742 40.5,65.5C 37.1092,66.5293 34.4426,68.5293 32.5,71.5C 30.9731,71.427 29.9731,72.0937 29.5,73.5C 27.9731,73.427 26.9731,74.0937 26.5,75.5C 23.4887,76.6693 20.822,78.336 18.5,80.5C 17.1667,82.5 15.5,84.1667 13.5,85.5C 11.127,87.5792 9.79362,90.2459 9.5,93.5C 8.73209,94.2625 8.23209,95.2625 8,96.5C 7.16955,125.67 7.33622,154.67 8.5,183.5C 10.3585,194.53 16.6918,201.697 27.5,205C 54.8313,205.5 82.1646,205.667 109.5,205.5C 108.833,206.167 108.167,206.833 107.5,207.5C 81.6699,208.663 55.6699,208.83 29.5,208C 17.7416,205.241 10.2416,198.074 7,186.5C 6.03708,154.46 6.37041,122.46 8,90.5C 10.7294,84.4366 14.8961,79.6033 20.5,76C 32.5,68 44.5,60 56.5,52C 58.1667,51.3333 59.8333,51.3333 61.5,52C 62.0219,52.5613 62.3552,53.228 62.5,54C 61.6164,61.8147 60.7831,69.648 60,77.5C 49.6779,84.7324 39.5112,92.0657 29.5,99.5 Z"/></g>
<g><path style="opacity:0.976" fill="#a788c3" d="M 40.5,65.5 C 38.1997,67.984 35.5331,69.984 32.5,71.5C 34.4426,68.5293 37.1092,66.5293 40.5,65.5 Z"/></g>
<g><path style="opacity:0.98" fill="#bb8ddc" d="M 58.5,59.5 C 58.6657,63.8461 58.499,68.1794 58,72.5C 57.79,74.0581 57.29,75.3915 56.5,76.5C 56.8158,70.6511 57.4825,64.9845 58.5,59.5 Z"/></g>
<g><path style="opacity:0.976" fill="#aa7dcd" d="M 52.5,57.5 C 52.0269,58.9063 51.0269,59.573 49.5,59.5C 49.9731,58.0937 50.9731,57.427 52.5,57.5 Z"/></g>
<g><path style="opacity:0.945" fill="#ae90ca" d="M 58.5,59.5 C 58.5,58.1667 58.5,56.8333 58.5,55.5C 56.3146,55.7036 54.3146,56.3702 52.5,57.5C 54.0361,54.9078 56.3695,53.9078 59.5,54.5C 59.7845,56.4147 59.4511,58.0813 58.5,59.5 Z"/></g>
<g><path style="opacity:0.929" fill="#ab90c6" d="M 104.5,71.5 C 106.027,71.427 107.027,72.0937 107.5,73.5C 105.973,73.573 104.973,72.9063 104.5,71.5 Z"/></g>
<g><path style="opacity:0.988" fill="#b37bdb" d="M 29.5,73.5 C 29.0269,74.9063 28.0269,75.573 26.5,75.5C 26.9731,74.0937 27.9731,73.427 29.5,73.5 Z"/></g>
<g><path style="opacity:0.929" fill="#a385c1" d="M 107.5,73.5 C 109.027,73.427 110.027,74.0937 110.5,75.5C 108.973,75.573 107.973,74.9063 107.5,73.5 Z"/></g>
<g><path style="opacity:0.988" fill="#af7ad5" d="M 26.5,75.5 C 24.4697,78.182 21.803,79.8486 18.5,80.5C 20.822,78.336 23.4887,76.6693 26.5,75.5 Z"/></g>
<g><path style="opacity:0.745" fill="#8d86a4" d="M 122.5,84.5 C 122.833,84.5 123.167,84.5 123.5,84.5C 125.915,87.3399 127.248,90.6733 127.5,94.5C 125.866,91.232 124.199,87.8987 122.5,84.5 Z"/></g>
<g><path style="opacity:0.973" fill="#b67edd" d="M 94.5,86.5 C 96.0269,86.427 97.0269,87.0937 97.5,88.5C 95.9731,88.573 94.9731,87.9063 94.5,86.5 Z"/></g>
<g><path style="opacity:0.941" fill="#a986c7" d="M 39.5,88.5 C 39.0269,89.9063 38.0269,90.573 36.5,90.5C 36.9731,89.0937 37.9731,88.427 39.5,88.5 Z"/></g>
<g><path style="opacity:0.647" fill="#394e52" d="M 73.5,84.5 C 78.6976,85.7034 82.3642,88.7034 84.5,93.5C 80.4934,90.8181 76.8267,87.8181 73.5,84.5 Z"/></g>
<g><path style="opacity:0.98" fill="#b67fdc" d="M 97.5,88.5 C 99.0269,88.427 100.027,89.0937 100.5,90.5C 98.9731,90.573 97.9731,89.9063 97.5,88.5 Z"/></g>
<g><path style="opacity:0.961" fill="#a384c0" d="M 13.5,85.5 C 12.6955,88.4422 11.3622,91.1089 9.5,93.5C 9.79362,90.2459 11.127,87.5792 13.5,85.5 Z"/></g>
<g><path style="opacity:0.941" fill="#a684c5" d="M 36.5,90.5 C 35.2921,93.0442 33.2921,94.3775 30.5,94.5C 32.2228,92.7819 34.2228,91.4486 36.5,90.5 Z"/></g>
<g><path style="opacity:0.976" fill="#b59ecc" d="M 54.5,92.5 C 52.9372,96.6613 52.2705,100.995 52.5,105.5C 50.8336,100.841 51.5003,96.5081 54.5,92.5 Z"/></g>
<g><path style="opacity:0.929" fill="#8d84a5" d="M 72.5,58.5 C 72.1786,64.0262 72.5119,69.3595 73.5,74.5C 73.5,77.8333 73.5,81.1667 73.5,84.5C 76.8267,87.8181 80.4934,90.8181 84.5,93.5C 85.4575,97.9972 85.4575,102.33 84.5,106.5C 84.8222,102.253 83.9889,98.253 82,94.5C 78.955,90.937 75.2883,88.2703 71,86.5C 70.9078,77.0014 71.4078,67.6681 72.5,58.5 Z"/></g>
<g><path style="opacity:0.902" fill="#8d8ba1" d="M 9.5,93.5 C 8.53947,123.479 8.20614,153.479 8.5,183.5C 7.33622,154.67 7.16955,125.67 8,96.5C 8.23209,95.2625 8.73209,94.2625 9.5,93.5 Z"/></g>
<g><path style="opacity:0.937" fill="#736e8c" d="M 127.5,94.5 C 128.222,94.9175 128.722,95.5842 129,96.5C 129.824,105.676 129.657,114.676 128.5,123.5C 128.755,113.794 128.421,104.127 127.5,94.5 Z"/></g>
<g><path style="opacity:0.752" fill="#384c50" d="M 123.5,82.5 C 125.451,83.7158 126.951,85.3825 128,87.5C 131.568,100.18 132.401,113.014 130.5,126C 122.92,126.813 115.42,126.647 108,125.5C 107.781,116.12 107.281,106.787 106.5,97.5C 107.117,97.6107 107.617,97.944 108,98.5C 108.333,107.167 108.667,115.833 109,124.5C 112.249,125.147 115.582,125.481 119,125.5C 122.576,125.485 125.742,124.818 128.5,123.5C 129.657,114.676 129.824,105.676 129,96.5C 128.722,95.5842 128.222,94.9175 127.5,94.5C 127.248,90.6733 125.915,87.3399 123.5,84.5C 123.5,83.8333 123.5,83.1667 123.5,82.5 Z"/></g>
<g><path style="opacity:0.267" fill="#525d6b" d="M 129.5,140.5 C 129.829,155.01 129.496,169.343 128.5,183.5C 128.5,170.167 128.5,156.833 128.5,143.5C 119.84,142.834 111.006,142.5 102,142.5C 92.8071,142.502 83.9738,143.168 75.5,144.5C 69.0086,146.45 65.0086,150.783 63.5,157.5C 62.5489,158.919 62.2155,160.585 62.5,162.5C 61.0883,158.111 61.5883,153.778 64,149.5C 66.921,145.908 70.421,143.075 74.5,141C 92.8303,140.5 111.164,140.333 129.5,140.5 Z"/></g>
<g><path style="opacity:0.949" fill="#9f70c5" d="M 128.5,143.5 C 110.806,143.222 93.139,143.555 75.5,144.5C 83.9738,143.168 92.8071,142.502 102,142.5C 111.006,142.5 119.84,142.834 128.5,143.5 Z"/></g>
<g><path style="opacity:0.133" fill="#314648" d="M 129.5,140.5 C 130.117,140.611 130.617,140.944 131,141.5C 131.667,155.167 131.667,168.833 131,182.5C 130.768,183.737 130.268,184.737 129.5,185.5C 128.662,185.158 128.328,184.492 128.5,183.5C 129.496,169.343 129.829,155.01 129.5,140.5 Z"/></g>
<g><path style="opacity:0.49" fill="#a2a1b2" d="M 63.5,157.5 C 63.5,158.833 63.5,160.167 63.5,161.5C 79.1667,161.5 94.8333,161.5 110.5,161.5C 110.825,168.687 110.491,175.687 109.5,182.5C 110.126,175.416 109.459,168.75 107.5,162.5C 92.5,162.5 77.5,162.5 62.5,162.5C 62.2155,160.585 62.5489,158.919 63.5,157.5 Z"/></g>
<g><path style="opacity:0.22" fill="#374e4f" d="M 29.5,99.5 C 29.3334,127.169 29.5,154.835 30,182.5C 30.5,183 31,183.5 31.5,184C 56.1644,184.5 80.8311,184.667 105.5,184.5C 80.6722,185.498 55.6722,185.831 30.5,185.5C 29.0937,185.027 28.427,184.027 28.5,182.5C 28.1687,154.662 28.5021,126.995 29.5,99.5 Z"/></g>
<g><path style="opacity:0.78" fill="#4c5f63" d="M 107.5,162.5 C 109.459,168.75 110.126,175.416 109.5,182.5C 109.672,183.492 109.338,184.158 108.5,184.5C 107.711,184.783 107.044,185.283 106.5,186C 80.9967,186.83 55.6633,186.663 30.5,185.5C 55.6722,185.831 80.6722,185.498 105.5,184.5C 105.783,183.711 106.283,183.044 107,182.5C 107.5,175.842 107.666,169.175 107.5,162.5 Z"/></g>
<g><path style="opacity:0.945" fill="#9188a9" d="M 27.5,97.5 C 27.1687,126.005 27.502,154.338 28.5,182.5C 28.427,184.027 29.0937,185.027 30.5,185.5C 55.6633,186.663 80.9967,186.83 106.5,186C 107.044,185.283 107.711,184.783 108.5,184.5C 108.586,185.496 108.252,186.329 107.5,187C 81.5,187.667 55.5,187.667 29.5,187C 29,186.5 28.5,186 28,185.5C 26.8484,170.59 26.3484,155.59 26.5,140.5C 26.5001,125.996 26.8334,111.663 27.5,97.5 Z"/></g>
<g><path style="opacity:0.761" fill="#988ead" d="M 128.5,183.5 C 128.328,184.492 128.662,185.158 129.5,185.5C 129.5,185.833 129.5,186.167 129.5,186.5C 128.009,189.021 126.342,191.354 124.5,193.5C 125.658,190.011 126.991,186.678 128.5,183.5 Z"/></g>
<g><path style="opacity:0.929" fill="#8e85a5" d="M 124.5,193.5 C 122.991,197.684 120.324,201.018 116.5,203.5C 114.382,204.946 112.049,205.613 109.5,205.5C 115.452,202.691 120.452,198.691 124.5,193.5 Z"/></g>
<g><path style="opacity:0.502" fill="#3a4e52" d="M 129.5,186.5 C 127.415,198.917 120.081,205.917 107.5,207.5C 108.167,206.833 108.833,206.167 109.5,205.5C 112.049,205.613 114.382,204.946 116.5,203.5C 120.324,201.018 122.991,197.684 124.5,193.5C 126.342,191.354 128.009,189.021 129.5,186.5 Z"/></g>
</svg>
