<svg id="visual" viewBox="0 0 900 600" width="900" height="600" xmlns="http://www.w3.org/2000/svg" xmlns:xlink="http://www.w3.org/1999/xlink" version="1.1"><path d="M0 232L21.5 217.5C43 203 86 174 128.8 183.5C171.7 193 214.3 241 257.2 264.2C300 287.3 343 285.7 385.8 270.3C428.7 255 471.3 226 514.2 220C557 214 600 231 642.8 216.2C685.7 201.3 728.3 154.7 771.2 131.8C814 109 857 110 878.5 110.5L900 111L900 601L878.5 601C857 601 814 601 771.2 601C728.3 601 685.7 601 642.8 601C600 601 557 601 514.2 601C471.3 601 428.7 601 385.8 601C343 601 300 601 257.2 601C214.3 601 171.7 601 128.8 601C86 601 43 601 21.5 601L0 601Z" fill="#ccccff"></path><path d="M0 219L21.5 241.5C43 264 86 309 128.8 326C171.7 343 214.3 332 257.2 308.8C300 285.7 343 250.3 385.8 248.5C428.7 246.7 471.3 278.3 514.2 285.3C557 292.3 600 274.7 642.8 264.5C685.7 254.3 728.3 251.7 771.2 265.8C814 280 857 311 878.5 326.5L900 342L900 601L878.5 601C857 601 814 601 771.2 601C728.3 601 685.7 601 642.8 601C600 601 557 601 514.2 601C471.3 601 428.7 601 385.8 601C343 601 300 601 257.2 601C214.3 601 171.7 601 128.8 601C86 601 43 601 21.5 601L0 601Z" fill="#a9c8fe"></path><path d="M0 335L21.5 338.8C43 342.7 86 350.3 128.8 358.8C171.7 367.3 214.3 376.7 257.2 383.7C300 390.7 343 395.3 385.8 379.2C428.7 363 471.3 326 514.2 319.5C557 313 600 337 642.8 346.5C685.7 356 728.3 351 771.2 352.3C814 353.7 857 361.3 878.5 365.2L900 369L900 601L878.5 601C857 601 814 601 771.2 601C728.3 601 685.7 601 642.8 601C600 601 557 601 514.2 601C471.3 601 428.7 601 385.8 601C343 601 300 601 257.2 601C214.3 601 171.7 601 128.8 601C86 601 43 601 21.5 601L0 601Z" fill="#7fc5f7"></path><path d="M0 437L21.5 440.8C43 444.7 86 452.3 128.8 450.7C171.7 449 214.3 438 257.2 431.7C300 425.3 343 423.7 385.8 421.5C428.7 419.3 471.3 416.7 514.2 423.7C557 430.7 600 447.3 642.8 446.8C685.7 446.3 728.3 428.7 771.2 420.7C814 412.7 857 414.3 878.5 415.2L900 416L900 601L878.5 601C857 601 814 601 771.2 601C728.3 601 685.7 601 642.8 601C600 601 557 601 514.2 601C471.3 601 428.7 601 385.8 601C343 601 300 601 257.2 601C214.3 601 171.7 601 128.8 601C86 601 43 601 21.5 601L0 601Z" fill="#4fc1e9"></path><path d="M0 500L21.5 494.2C43 488.3 86 476.7 128.8 479.3C171.7 482 214.3 499 257.2 511.3C300 523.7 343 531.3 385.8 530.5C428.7 529.7 471.3 520.3 514.2 509.8C557 499.3 600 487.7 642.8 478C685.7 468.3 728.3 460.7 771.2 457.7C814 454.7 857 456.3 878.5 457.2L900 458L900 601L878.5 601C857 601 814 601 771.2 601C728.3 601 685.7 601 642.8 601C600 601 557 601 514.2 601C471.3 601 428.7 601 385.8 601C343 601 300 601 257.2 601C214.3 601 171.7 601 128.8 601C86 601 43 601 21.5 601L0 601Z" fill="#00bcd4"></path></svg>