<svg id="visual" viewBox="0 0 900 600" width="900" height="600" xmlns="http://www.w3.org/2000/svg" xmlns:xlink="http://www.w3.org/1999/xlink" version="1.1"><path d="M0 489L15 487.5C30 486 60 483 90 480.2C120 477.3 150 474.7 180 478.5C210 482.3 240 492.7 270 497.8C300 503 330 503 360 499.8C390 496.7 420 490.3 450 482.3C480 474.3 510 464.7 540 465.5C570 466.3 600 477.7 630 482.3C660 487 690 485 720 479C750 473 780 463 810 458.5C840 454 870 455 885 455.5L900 456L900 601L885 601C870 601 840 601 810 601C780 601 750 601 720 601C690 601 660 601 630 601C600 601 570 601 540 601C510 601 480 601 450 601C420 601 390 601 360 601C330 601 300 601 270 601C240 601 210 601 180 601C150 601 120 601 90 601C60 601 30 601 15 601L0 601Z" fill="#ccccff"></path><path d="M0 517L15 516.2C30 515.3 60 513.7 90 509.2C120 504.7 150 497.3 180 497.7C210 498 240 506 270 508.5C300 511 330 508 360 504.3C390 500.7 420 496.3 450 498.8C480 501.3 510 510.7 540 510.7C570 510.7 600 501.3 630 501.7C660 502 690 512 720 514.3C750 516.7 780 511.3 810 504.8C840 498.3 870 490.7 885 486.8L900 483L900 601L885 601C870 601 840 601 810 601C780 601 750 601 720 601C690 601 660 601 630 601C600 601 570 601 540 601C510 601 480 601 450 601C420 601 390 601 360 601C330 601 300 601 270 601C240 601 210 601 180 601C150 601 120 601 90 601C60 601 30 601 15 601L0 601Z" fill="#9bc7fc"></path><path d="M0 534L15 532.5C30 531 60 528 90 529.3C120 530.7 150 536.3 180 534.8C210 533.3 240 524.7 270 520.2C300 515.7 330 515.3 360 519.7C390 524 420 533 450 537.2C480 541.3 510 540.7 540 538.3C570 536 600 532 630 533.5C660 535 690 542 720 543.5C750 545 780 541 810 542C840 543 870 549 885 552L900 555L900 601L885 601C870 601 840 601 810 601C780 601 750 601 720 601C690 601 660 601 630 601C600 601 570 601 540 601C510 601 480 601 450 601C420 601 390 601 360 601C330 601 300 601 270 601C240 601 210 601 180 601C150 601 120 601 90 601C60 601 30 601 15 601L0 601Z" fill="#60c3ef"></path><path d="M0 551L15 553C30 555 60 559 90 558.8C120 558.7 150 554.3 180 554.5C210 554.7 240 559.3 270 560.8C300 562.3 330 560.7 360 561.2C390 561.7 420 564.3 450 564.3C480 564.3 510 561.7 540 563.2C570 564.7 600 570.3 630 568.7C660 567 690 558 720 556.7C750 555.3 780 561.7 810 561.7C840 561.7 870 555.3 885 552.2L900 549L900 601L885 601C870 601 840 601 810 601C780 601 750 601 720 601C690 601 660 601 630 601C600 601 570 601 540 601C510 601 480 601 450 601C420 601 390 601 360 601C330 601 300 601 270 601C240 601 210 601 180 601C150 601 120 601 90 601C60 601 30 601 15 601L0 601Z" fill="#00bcd4"></path></svg>